<svg width="177" height="35" viewBox="0 0 177 35" fill="none" xmlns="http://www.w3.org/2000/svg">
<path d="M10.6901 14.7073L17.5761 7.91053L24.4658 14.7109L28.4726 10.7559L17.5761 0L6.68332 10.7523L10.6901 14.7073Z" fill="#F3BA2F"/>
<path d="M7.86054 17.4994L3.85383 13.5445L-0.153076 17.4996L3.85363 21.4545L7.86054 17.4994Z" fill="#F3BA2F"/>
<path d="M10.6901 20.2927L17.5761 27.0895L24.4655 20.2894L28.4746 24.2422L28.4726 24.2444L17.5761 35L6.67744 24.2424L10.6901 20.2927Z" fill="#F3BA2F"/>
<path d="M31.2988 21.4564L35.3057 17.5012L31.299 13.5463L27.2921 17.5014L31.2988 21.4564Z" fill="#F3BA2F"/>
<path d="M21.6403 17.4979H21.642L17.5761 13.4846L13.5083 17.4999L13.5139 17.5057L17.5761 21.5154L21.642 17.5021L21.644 17.4999L21.6403 17.4979Z" fill="#F3BA2F"/>
<path d="M41.5521 8.48082H50.2666C52.4295 8.48082 54.0651 9.02872 55.1735 10.1245C56.0313 10.9732 56.4601 12.025 56.4601 13.2798V13.3328C56.4601 13.8631 56.3937 14.3316 56.2601 14.738C56.1268 15.1449 55.9487 15.5112 55.7261 15.8382C55.504 16.1655 55.2458 16.4527 54.9523 16.6999C54.6585 16.9475 54.3429 17.1598 54.0049 17.3362C55.092 17.7431 55.9479 18.2952 56.5719 18.9935C57.1955 19.692 57.5078 20.6598 57.5078 21.8969V21.9497C57.5078 22.7983 57.3426 23.5406 57.0118 24.1772C56.6811 24.8133 56.2072 25.3438 55.5903 25.7681C54.9733 26.1924 54.2314 26.5103 53.3644 26.7226C52.4973 26.9347 51.5364 27.0405 50.482 27.0405H41.5521V8.48082ZM49.3954 15.9842C50.3089 15.9842 51.0343 15.8299 51.5712 15.5203C52.1083 15.211 52.3769 14.7114 52.3769 14.0223V13.9692C52.3769 13.3508 52.1439 12.8781 51.6784 12.5508C51.2127 12.2238 50.5411 12.0601 49.664 12.0601H45.581V15.9842H49.3954ZM50.4969 23.4615C51.4101 23.4615 52.1259 23.2984 52.6457 22.9711C53.165 22.6441 53.4249 22.1357 53.4249 21.4463V21.3935C53.4249 20.7748 53.1829 20.2844 52.6995 19.9217C52.2158 19.5599 51.437 19.3785 50.3624 19.3785H45.581V23.4618L50.4969 23.4615Z" fill="#F3BA2F"/>
<path d="M62.6978 8.48082H66.8348V27.0411H62.6978V8.48082Z" fill="#F3BA2F"/>
<path d="M73.1005 8.48082H76.9144L85.7252 19.9087V8.48082H89.8082V27.0411H86.2896L77.1832 15.2422V27.0411H73.1005V8.48082Z" fill="#F3BA2F"/>
<path d="M102.332 8.34841H106.146L114.205 27.0411H109.88L108.161 22.8785H100.21L98.4911 27.0411H94.2731L102.332 8.34841ZM106.684 19.2721L104.185 13.2535L101.688 19.2721H106.684Z" fill="#F3BA2F"/>
<path d="M118.671 8.48082H122.486L131.296 19.9087V8.48082H135.379V27.0411H131.86L122.754 15.2422V27.0411H118.671V8.48082Z" fill="#F3BA2F"/>
<path d="M150.267 27.359C148.887 27.359 147.607 27.1113 146.425 26.6168C145.243 26.1222 144.222 25.4458 143.363 24.5883C142.503 23.731 141.831 22.719 141.348 21.5524C140.865 20.3856 140.623 19.1394 140.623 17.8136V17.7608C140.623 16.435 140.865 15.1935 141.348 14.0356C141.832 12.8778 142.503 11.8614 143.363 10.9864C144.222 10.1115 145.252 9.42181 146.452 8.91814C147.651 8.41447 148.977 8.16264 150.428 8.16264C151.305 8.16264 152.106 8.23368 152.831 8.37467C153.556 8.51648 154.214 8.71054 154.806 8.95795C155.397 9.20564 155.943 9.50613 156.445 9.85941C156.945 10.2133 157.411 10.6019 157.841 11.0263L155.209 14.0223C154.474 13.3685 153.727 12.8554 152.966 12.4845C152.204 12.1135 151.35 11.9277 150.4 11.9277C149.612 11.9277 148.883 12.0781 148.212 12.3786C147.54 12.6791 146.962 13.0943 146.479 13.6245C145.995 14.1547 145.619 14.7692 145.35 15.4672C145.082 16.1658 144.948 16.9124 144.948 17.7077V17.7605C144.948 18.5559 145.082 19.3075 145.35 20.0141C145.619 20.7215 145.99 21.3399 146.465 21.8701C146.94 22.4003 147.513 22.8204 148.184 23.1298C148.856 23.4394 149.595 23.5936 150.4 23.5936C151.475 23.5936 152.383 23.3993 153.127 23.0104C153.87 22.622 154.609 22.0915 155.343 21.4195L157.975 24.0445C157.492 24.5573 156.99 25.017 156.471 25.4231C155.952 25.83 155.383 26.1789 154.765 26.4708C154.148 26.7622 153.471 26.9836 152.738 27.1334C152.003 27.2835 151.179 27.359 150.267 27.359Z" fill="#F3BA2F"/>
<path d="M162.844 8.48082H177V12.1135H166.927V15.8786H175.792V19.5109H166.927V23.4087H177.135V27.0411H162.844V8.48082Z" fill="#F3BA2F"/>
</svg>
