<svg width="163" height="49" viewBox="0 0 163 49" fill="none" xmlns="http://www.w3.org/2000/svg">
<path d="M161.611 18.1915C161.791 18.1915 161.972 18.1915 162.153 18.3727C162.333 18.5539 162.333 18.7352 162.333 18.9164V22.9034C162.333 23.0846 162.333 23.2658 162.153 23.447C161.972 23.6283 161.791 23.6283 161.611 23.6283H158.178V39.5762C158.178 39.7574 158.178 39.9387 157.997 40.1199C157.816 40.3011 157.636 40.3011 157.455 40.3011H152.216C152.035 40.3011 151.854 40.3011 151.673 40.1199C151.493 39.9387 151.493 39.7574 151.493 39.5762V23.447H148.06C147.879 23.447 147.699 23.447 147.518 23.2658C147.337 23.0846 147.337 22.9034 147.337 22.7221V18.7352C147.337 18.5539 147.337 18.3727 147.518 18.1915C147.699 18.1915 147.879 18.1915 148.06 18.1915H151.493V12.5735C151.493 12.3922 151.493 12.211 151.673 12.0298C151.854 11.8485 152.035 11.8485 152.216 11.8485H157.455C157.636 11.8485 157.816 11.8485 157.997 12.0298C158.178 12.211 158.178 12.3922 158.178 12.5735V18.1915H161.611Z" fill="#1EA2B4"/>
<path d="M146.615 28.8838C146.615 29.79 146.434 30.5149 146.253 31.0586C146.073 31.421 145.711 31.6022 144.988 31.6022H131.98C132.341 32.8708 132.883 33.777 133.787 34.3206C134.69 34.8643 135.955 35.2268 137.4 35.2268C138.123 35.2268 138.846 35.2268 139.388 35.0455C140.11 34.8643 140.833 34.5019 141.556 33.9582C141.736 33.777 141.917 33.777 142.098 33.777C142.278 33.777 142.459 33.777 142.64 33.9582L144.988 36.1329C145.169 36.3141 145.169 36.3141 145.169 36.4954C145.169 36.6766 145.169 36.8578 144.988 37.039C143.904 38.1264 142.82 38.8513 141.375 39.5762C140.11 40.1199 138.665 40.4823 137.039 40.4823C134.871 40.4823 132.883 39.9387 131.076 39.0325C129.45 37.9452 128.005 36.6766 127.102 34.8643C126.198 33.2333 125.656 31.2398 125.656 29.2463C125.656 27.2528 126.198 25.2593 127.102 23.6283C128.005 21.9972 129.45 20.5474 131.076 19.6413C132.703 18.5539 134.509 18.1915 136.677 18.1915C138.665 18.1915 140.472 18.7352 141.917 19.6413C143.543 20.5474 144.627 21.9972 145.531 23.6283C146.253 25.0781 146.615 26.8904 146.615 28.8838ZM136.497 23.6283C135.413 23.6283 134.329 23.9907 133.606 24.5344C132.703 25.0781 132.341 25.9842 131.98 27.2528H140.833C140.652 25.9842 140.11 25.0781 139.388 24.5344C138.484 23.9907 137.581 23.6283 136.497 23.6283Z" fill="#1EA2B4"/>
<path d="M122.765 18.5539C122.946 18.5539 123.127 18.5539 123.307 18.7352C123.488 18.9164 123.488 19.0976 123.488 19.2788V40.1199C123.488 42.2946 122.946 44.1069 121.681 45.3755C120.597 46.8253 119.152 47.7314 117.345 48.2751C115.538 48.6375 113.912 49 111.925 49C110.118 49 108.311 48.8188 106.685 48.2751C105.059 47.7314 103.614 47.0065 102.53 46.2816C102.349 46.1004 102.349 45.9191 102.349 45.7379C102.349 45.5567 102.349 45.3755 102.349 45.3755L103.975 42.2946C104.156 42.1134 104.336 41.9322 104.517 41.9322C104.698 41.9322 104.698 41.9322 104.878 41.9322C105.782 42.4758 106.866 43.0195 107.95 43.2007C109.034 43.382 110.118 43.5632 111.563 43.5632C113.009 43.5632 114.454 43.2007 115.538 42.6571C116.803 42.1134 117.345 41.026 117.345 39.5762V37.5827C115.719 39.5762 113.551 40.4823 111.021 40.4823C109.034 40.4823 107.227 39.9387 105.782 39.0325C104.156 37.9452 102.891 36.6766 101.988 34.8643C101.084 33.2333 100.723 31.2398 100.723 29.2463C100.723 27.2528 101.084 25.4405 101.988 23.6283C103.072 21.816 104.156 20.5474 105.782 19.4601C107.408 18.3727 109.034 18.0103 111.021 18.0103C113.37 18.0103 115.358 18.9164 117.164 20.9099L117.345 19.0976C117.345 18.7352 117.706 18.3727 118.068 18.3727H122.765V18.5539ZM111.925 34.3206C113.19 34.3206 114.454 33.777 115.358 32.6896C116.261 31.6022 116.803 30.5149 116.803 29.0651C116.803 27.6153 116.261 26.5279 115.358 25.4405C114.454 24.3532 113.37 23.8095 111.925 23.8095C110.479 23.8095 109.395 24.3532 108.492 25.2593C107.589 26.1654 107.047 27.434 107.047 28.8838C107.047 30.3337 107.408 31.6022 108.311 32.5084C109.395 33.777 110.479 34.3206 111.925 34.3206Z" fill="#1EA2B4"/>
<path d="M98.5548 18.1915C98.7355 18.1915 98.9162 18.1915 99.0968 18.3727C99.2775 18.5539 99.2775 18.7352 99.2775 18.9164V22.9034C99.2775 23.0846 99.2775 23.2658 99.0968 23.447C98.9162 23.6283 98.7355 23.6283 98.5548 23.6283H95.122V39.5762C95.122 39.7574 95.122 39.9387 94.9413 40.1199C94.7606 40.3011 94.5799 40.3011 94.3993 40.3011H89.1597C88.979 40.3011 88.7983 40.3011 88.6176 40.1199C88.6176 39.9387 88.6176 39.7574 88.6176 39.5762V23.447H85.0041C84.8234 23.447 84.6428 23.447 84.4621 23.2658C84.2814 23.0846 84.2814 22.9034 84.2814 22.7221V18.7352C84.2814 18.5539 84.2814 18.3727 84.4621 18.1915C84.6428 18.1915 84.8234 18.1915 85.0041 18.1915H88.6176V12.5735C88.6176 12.3922 88.6176 12.211 88.7983 12.0298C88.979 11.8485 89.1597 11.8485 89.3403 11.8485H94.5799C94.7606 11.8485 94.9413 11.8485 95.122 12.0298C95.3026 12.211 95.3026 12.3922 95.3026 12.5735V18.1915H98.5548Z" fill="#1EA2B4"/>
<path d="M78.6805 16.3792C77.7771 16.3792 76.8737 16.0168 76.151 15.2919C75.609 14.5669 75.2476 13.842 75.2476 12.7547C75.2476 11.6673 75.609 10.9424 76.3317 10.2175C76.8737 9.4926 77.7771 9.13015 78.6805 9.13015C79.5838 9.13015 80.4872 9.4926 81.2099 10.2175C81.9326 10.9424 82.294 11.8485 82.294 12.7547C82.294 13.6608 81.9326 14.5669 81.2099 15.2919C80.4872 16.0168 79.7645 16.3792 78.6805 16.3792ZM75.4283 18.7352C75.4283 18.5539 75.4283 18.3727 75.609 18.1915C75.7896 18.1915 75.9703 18.1915 76.151 18.1915H81.3906C81.5713 18.1915 81.752 18.1915 81.9326 18.3727C82.1133 18.5539 82.1133 18.7352 82.1133 18.9164V39.5762C82.1133 39.7574 82.1133 39.9387 81.9326 40.1199C81.752 40.3011 81.5713 40.3011 81.3906 40.3011H76.151C75.9703 40.3011 75.7896 40.3011 75.609 40.1199C75.4283 39.9387 75.4283 39.7574 75.4283 39.5762V18.7352Z" fill="#1EA2B4"/>
<path d="M67.1172 23.6283C68.7433 23.9907 70.1887 24.8969 71.2728 26.3467C72.5375 27.7965 73.0795 29.4275 73.0795 31.2398C73.0795 34.1394 72.1761 36.4954 70.1887 37.9452C68.3819 39.395 65.4911 40.1199 61.6969 40.1199H51.0371C50.8564 40.1199 50.6757 40.1199 50.495 39.9387C50.3144 39.7574 50.3144 39.5762 50.3144 39.395V9.85505C50.3144 9.67383 50.3144 9.4926 50.495 9.31137C50.495 9.31137 50.6757 9.13015 50.8564 9.13015H61.5163C63.5037 9.13015 65.1298 9.4926 66.3945 10.2175C67.8399 10.9424 68.924 11.8485 69.466 13.1171C70.1887 14.3857 70.5501 15.6543 70.5501 17.2853C70.5501 18.7352 70.1887 20.185 69.466 21.2723C68.924 22.3597 68.0206 23.2658 67.1172 23.6283ZM64.4071 18.1915C64.4071 16.3792 63.323 15.2919 60.9742 15.2919H56.9994V21.2723H60.9742C62.0583 21.2723 62.9617 21.0911 63.5037 20.5474C64.0457 20.0037 64.4071 19.0976 64.4071 18.1915ZM61.8776 34.1394C63.1423 34.1394 64.2264 33.777 65.1298 33.2333C65.8525 32.6896 66.3945 31.6022 66.3945 30.5149C66.3945 29.2463 66.0332 28.3402 65.1298 27.7965C64.4071 27.2528 63.323 26.8904 61.8776 26.8904H56.9994V34.1394H61.8776Z" fill="#1EA2B4"/>
<path d="M12.9145 6.41175C13.4565 5.86807 14.1792 5.50562 14.9019 5.50562H20.1415C20.8642 5.50562 21.2256 6.23052 20.6835 6.7742L10.385 18.0103H16.1666L21.9483 24.172H10.385L21.9483 36.6766H14.9019C14.1792 36.6766 13.2758 36.3141 12.7338 35.7705L0.989866 23.0846C0.0864868 21.9972 0.0864868 20.185 1.17054 19.0976L12.9145 6.41175Z" fill="#1EA2B4"/>
<path d="M28.9946 48.0939C28.4526 48.6375 27.7299 49 26.8265 49H21.5869C20.8642 49 20.5029 48.2751 21.0449 47.7314L31.5241 36.4954H25.7425L19.9608 30.3337H31.5241L19.9608 17.829H27.0072C27.7299 17.829 28.6333 18.1915 29.1753 18.7352L40.9192 31.421C42.0033 32.5084 42.0033 34.3206 40.9192 35.408L28.9946 48.0939Z" fill="#1EA2B4"/>
</svg>
