<svg width="173" height="40" viewBox="0 0 173 40" fill="none" xmlns="http://www.w3.org/2000/svg">
<path d="M136.111 20.1362C136.111 19.1424 136.111 18.1485 136.111 17.2967C136.111 16.4448 135.969 15.593 135.827 14.8831C135.685 14.1732 135.401 13.4634 135.117 12.7535C134.834 12.0436 134.266 11.4757 133.698 10.9078C132.846 10.0559 131.994 9.48804 130.858 8.92014C129.722 8.49421 128.587 8.21026 127.309 8.21026C126.031 8.21026 124.895 8.35224 123.759 8.92014C122.766 9.34606 121.772 10.0559 120.92 10.7658C120.352 11.3337 119.926 11.9016 119.5 12.6115C119.216 13.3214 118.932 14.0313 118.79 14.7411C118.648 15.593 118.506 16.4448 118.506 17.1547C118.506 18.0066 118.506 19.0004 118.506 19.9942C118.506 20.988 118.506 21.9819 118.506 22.8337C118.506 23.6856 118.648 24.5374 118.79 25.2473C118.932 25.9572 119.216 26.6671 119.5 27.3769C119.784 28.0868 120.352 28.6547 120.92 29.2226C121.772 30.0745 122.624 30.6424 123.759 31.0683C124.895 31.4942 126.173 31.7782 127.309 31.7782C128.587 31.7782 129.722 31.6362 130.858 31.0683C131.852 30.6424 132.846 29.9325 133.698 29.2226C134.266 28.6547 134.692 28.0868 135.117 27.3769C135.401 26.6671 135.685 25.9572 135.827 25.2473C135.969 24.3955 136.111 23.5436 136.111 22.8337C136.111 22.1239 136.253 21.13 136.111 20.1362ZM131.568 20.1362C131.568 21.272 131.568 22.2658 131.568 22.9757C131.568 23.5436 131.426 24.2535 131.426 24.8214C131.426 25.2473 131.284 25.6732 131 25.9572C130.858 26.2411 130.716 26.5251 130.432 26.809C130.148 27.235 129.722 27.5189 129.155 27.6609C128.587 27.9448 128.019 27.9448 127.451 27.9448C126.883 27.9448 126.315 27.8029 125.747 27.6609C125.321 27.5189 124.753 27.093 124.469 26.809C124.185 26.5251 124.043 26.2411 123.901 25.9572C123.759 25.5313 123.617 25.2473 123.617 24.8214C123.476 24.2535 123.476 23.5436 123.476 22.9757C123.476 22.2658 123.476 21.272 123.476 20.1362C123.476 19.0004 123.476 18.0066 123.476 17.2967C123.476 16.7288 123.617 16.0189 123.617 15.451C123.617 15.0251 123.759 14.5992 123.901 14.3152C124.043 14.0313 124.185 13.7473 124.469 13.4634C124.753 13.0374 125.321 12.7535 125.747 12.6115C126.315 12.3276 126.883 12.3276 127.451 12.3276C128.019 12.3276 128.587 12.4695 129.155 12.6115C129.58 12.7535 130.006 13.1794 130.432 13.4634C130.716 13.7473 130.858 14.0313 131 14.3152C131.142 14.7411 131.284 15.0251 131.426 15.451C131.568 16.0189 131.568 16.7288 131.568 17.2967C131.568 18.1485 131.568 19.0004 131.568 20.1362Z" fill="#23AF91"/>
<path d="M172.741 8.77816C172.741 8.49421 172.599 8.35224 172.315 8.35224H168.624C168.34 8.35224 168.198 8.49421 168.198 8.77816V22.8337L158.969 8.49421C158.969 8.35224 158.827 8.35224 158.685 8.35224H155.136C154.852 8.35224 154.71 8.49421 154.71 8.77816V31.4942C154.71 31.7782 154.852 31.9202 155.136 31.9202H158.969C159.253 31.9202 159.395 31.7782 159.395 31.4942V17.4387L168.624 31.7782C168.624 31.9202 168.766 31.9202 168.908 31.9202H172.457C172.741 31.9202 172.883 31.7782 172.883 31.4942L172.741 8.77816Z" fill="#23AF91"/>
<path d="M147.327 8.77816C147.327 8.49421 147.185 8.35224 146.901 8.35224H143.068C142.784 8.35224 142.642 8.49421 142.642 8.77816V31.4942C142.642 31.7782 142.784 31.9202 143.068 31.9202H146.901C147.185 31.9202 147.327 31.7782 147.327 31.4942V8.77816Z" fill="#23AF91"/>
<path d="M102.037 20.1362C102.037 19.0004 102.037 18.0066 102.037 17.2967C102.037 16.7288 102.179 16.0189 102.179 15.451C102.463 13.4634 104.025 12.1856 106.013 12.1856C107.29 12.1856 108.426 12.6115 109.278 13.7473C109.562 14.3152 109.846 14.8831 109.988 15.451C109.988 15.451 109.988 15.593 110.13 15.593H114.673C114.673 15.593 114.815 15.593 114.815 15.451C114.389 12.7535 112.827 10.1979 110.272 8.92014C108.994 8.35224 107.574 8.06829 106.155 8.06829C103.599 8.06829 101.469 8.92014 99.7656 10.6238C98.7718 11.6177 98.0619 12.7535 97.7779 14.1732C97.494 15.451 97.352 17.4387 97.352 19.9942C97.352 22.5498 97.494 24.5374 97.7779 25.8152C98.0619 27.093 98.7718 28.3708 99.6236 29.3646C101.327 31.0683 103.457 31.9202 106.013 31.9202C107.432 31.9202 108.852 31.6362 110.13 31.0683C112.685 29.7905 114.247 27.3769 114.673 24.5374C114.673 24.5374 114.673 24.3955 114.531 24.3955H110.13C110.13 24.3955 109.988 24.3955 109.988 24.5374C109.846 25.1053 109.562 25.6732 109.278 26.2411C108.568 27.3769 107.29 27.8029 106.013 27.8029C104.025 27.8029 102.463 26.6671 102.179 24.5374C102.037 23.9695 102.037 23.2597 102.037 22.6918C102.037 22.2658 102.037 21.272 102.037 20.1362Z" fill="#23AF91"/>
<path d="M54.9014 8.77816C54.9014 8.49421 54.7594 8.35224 54.4754 8.35224H50.7841C50.5001 8.35224 50.3582 8.49421 50.3582 8.77816V31.4942C50.3582 31.7782 50.5001 31.9202 50.7841 31.9202H54.6174C54.9014 31.9202 55.0433 31.7782 55.0433 31.4942V24.8214L58.0248 21.13L64.2717 31.7782C64.2717 31.9202 64.4137 31.9202 64.5557 31.9202H69.0989C69.2409 31.9202 69.3829 31.7782 69.2409 31.6362L61.0063 17.7226L68.531 8.77816C68.673 8.63619 68.673 8.35224 68.389 8.35224H63.4199C63.4199 8.35224 63.2779 8.35224 63.2779 8.49421L55.0433 18.4325V8.77816H54.9014Z" fill="#23AF91"/>
<path d="M82.5866 28.0868C80.4569 28.0868 78.4693 26.0992 78.4693 23.8276V8.77816C78.4693 8.49421 78.3273 8.35224 78.0434 8.35224H74.21C73.9261 8.35224 73.7841 8.49421 73.7841 8.77816V23.6856C73.7841 28.9387 77.6174 32.2041 82.4446 32.2041C87.2718 32.2041 91.1051 28.9387 91.1051 23.6856V8.77816C91.1051 8.49421 90.9631 8.35224 90.6792 8.35224H86.8458C86.5619 8.35224 86.4199 8.49421 86.4199 8.77816V23.6856C86.5619 26.0992 84.7162 28.0868 82.5866 28.0868Z" fill="#23AF91"/>
<path fill-rule="evenodd" clip-rule="evenodd" d="M12.3087 20.1362L24.0927 31.9202L31.4754 24.5374C32.7532 23.4016 34.8828 23.4016 36.1606 24.6794C37.4384 25.9572 37.4384 27.9448 36.3026 29.3646L26.3643 39.0189C25.0865 40.2967 22.9569 40.2967 21.6791 39.0189L7.48157 24.8214V33.3399C7.48157 35.1856 5.91984 36.7473 4.07416 36.7473C2.22848 36.7473 0.666748 35.1856 0.666748 33.3399V7.07446C0.666748 5.22878 2.22848 3.66705 4.07416 3.66705C5.91984 3.66705 7.48157 5.22878 7.48157 7.07446V15.451L21.6791 1.25347C22.9569 -0.0243092 25.0865 -0.0243092 26.3643 1.25347L36.1606 11.0498C37.2964 12.3275 37.2964 14.4572 36.0186 15.735C34.7408 17.0127 32.7532 17.0127 31.3334 15.8769L23.9507 8.49421L12.3087 20.1362ZM24.0927 16.8708C22.6729 16.8708 21.5371 17.7226 20.9692 19.0004C20.4013 20.2782 20.6853 21.6979 21.6791 22.6918C22.6729 23.6856 24.0927 23.9695 25.3705 23.4016C26.6483 22.8337 27.5001 21.6979 27.5001 20.2782C27.5001 19.4263 27.2162 18.5745 26.5063 17.8646C25.7964 17.1547 24.9445 16.8708 24.0927 16.8708Z" fill="#23AF91"/>
</svg>
