<svg xmlns="http://www.w3.org/2000/svg" viewBox="0 0 32 32">
<path d="M10.5,22.9v-1.4h2.8v1.4H10.5z M27,14.6c0.7,0,1.4,0.6,1.4,1.4v5.5c0,0.8-0.6,1.4-1.4,1.4h-1.4c0,2.3-1.9,4.1-4.1,4.1h-11c-2.3,0-4.1-1.8-4.1-4.1H5c-0.8,0-1.4-0.6-1.4-1.4V16c0-0.7,0.6-1.4,1.3-1.4h0h1.4v-1.4c0-2.2,1.8-4.1,4.1-4.1h4.8V5.7C15.3,5.3,15.6,5,16,5c0.3,0,0.7,0.3,0.7,0.7v3.4h4.8c2.2,0,4.1,1.9,4.1,4.1v1.4H27z M6.4,21.5V16H5v5.5H6.4z M24.3,22.9v-9.6c0-1.5-1.2-2.8-2.8-2.8h-11h0c-1.5,0-2.7,1.2-2.7,2.8v9.6c0,1.5,1.2,2.8,2.8,2.8h11C23,25.6,24.2,24.4,24.3,22.9z M27,21.5V16h-1.4v5.5H27z M20.1,13.3c1.5,0,2.7,1.2,2.8,2.8c0,1.5-1.2,2.8-2.8,2.8c-1.5,0-2.8-1.2-2.8-2.8C17.4,14.5,18.6,13.3,20.1,13.3z M20.1,17.4c0.7,0,1.4-0.6,1.4-1.3v0c0-0.7-0.6-1.4-1.4-1.4c-0.8,0-1.4,0.6-1.4,1.4C18.8,16.8,19.4,17.4,20.1,17.4z M18.8,22.9v-1.4h2.8v1.4H18.8z M14.6,22.9v-1.4h2.8v1.4H14.6z M11.9,13.3c1.5,0,2.7,1.2,2.8,2.8c0,1.5-1.2,2.8-2.8,2.8c-1.5,0-2.8-1.2-2.8-2.8C9.1,14.5,10.3,13.3,11.9,13.3z M11.9,17.4c0.7,0,1.4-0.6,1.4-1.3v0c0-0.7-0.6-1.4-1.4-1.4c-0.8,0-1.4,0.6-1.4,1.4C10.5,16.8,11.1,17.4,11.9,17.4z"/>
</svg>
