<?xml version="1.0" encoding="utf-8"?>
<!-- Generator: Adobe Illustrator 19.2.1, SVG Export Plug-In . SVG Version: 6.00 Build 0)  -->
<svg version="1.1" id="Слой_1" xmlns="http://www.w3.org/2000/svg" xmlns:xlink="http://www.w3.org/1999/xlink" x="0px" y="0px"
	 viewBox="0 0 24 24" style="enable-background:new 0 0 24 24;" xml:space="preserve">
<path d="M9.6,13H8.4C8.2,13,8,12.8,8,12.6v-1.2C8,11.2,8.2,11,8.4,11h1.3c0.1,0,0.3,0.2,0.3,0.4v1.3C10,12.8,9.8,13,9.6,13z M13,12.6c0,0.2-0.2,0.4-0.4,0.4h-1.2c-0.2,0-0.4-0.2-0.4-0.4v-1.2c0-0.2,0.2-0.4,0.4-0.4h1.3c0.1,0,0.3,0.2,0.3,0.4V12.6z M16,12.6c0,0.2-0.2,0.4-0.4,0.4h-1.3c-0.1,0-0.3-0.2-0.3-0.4v-1.2c0-0.2,0.2-0.4,0.4-0.4h1.3c0.1,0,0.3,0.2,0.3,0.4V12.6z M13,15.6c0,0.2-0.2,0.4-0.4,0.4h-1.2c-0.2,0-0.4-0.2-0.4-0.4v-1.3c0-0.1,0.2-0.3,0.4-0.3h1.3c0.1,0,0.3,0.2,0.3,0.4V15.6z M10,15.6c0,0.2-0.2,0.4-0.4,0.4H8.4C8.2,16,8,15.8,8,15.6v-1.3C8,14.2,8.2,14,8.4,14h1.3c0.1,0,0.3,0.2,0.3,0.4V15.6z M16,15.6c0,0.2-0.2,0.4-0.4,0.4h-1.3c-0.2,0-0.4-0.2-0.4-0.4v-1.3c0-0.2,0.2-0.4,0.4-0.4h1.3c0.2,0,0.4,0.2,0.4,0.4V15.6z M19,7.5v11c0,0.8-0.7,1.5-1.5,1.5h-11C5.7,20,5,19.3,5,18.5v-11C5,6.7,5.7,6,6.5,6H8V4.4C8,4.2,8.2,4,8.4,4h1.3C9.8,4,10,4.2,10,4.4V6h4V4.4C14,4.2,14.2,4,14.4,4h1.3C15.8,4,16,4.2,16,4.4V6h1.5C18.3,6,19,6.7,19,7.5z M17.5,18.3V9h-11v9.3c0,0.1,0.1,0.2,0.2,0.2h10.6C17.4,18.5,17.5,18.4,17.5,18.3z"/>
</svg>
