<?xml version="1.0" encoding="utf-8"?>
<!-- Generator: Adobe Illustrator 19.2.1, SVG Export Plug-In . SVG Version: 6.00 Build 0)  -->
<svg version="1.1" id="Слой_1" xmlns="http://www.w3.org/2000/svg" xmlns:xlink="http://www.w3.org/1999/xlink" x="0px" y="0px"
	 viewBox="0 0 32 32" style="enable-background:new 0 0 32 32;" xml:space="preserve">
<style type="text/css">
	.st0{fill:none;}
</style>
<path d="M27,9.1c0.7,0,1.4,0.6,1.4,1.4v11c0,0.8-0.6,1.3-1.4,1.3c-0.3,0-0.5,0-0.8-0.2l-4.7-3v2.6c0,1.1-1,2-2.2,2H5.8
	c-1.2,0-2.2-0.9-2.2-2V9.8c0-1.1,1-2.1,2.2-2.1h13.4c1.2,0,2.2,0.9,2.2,2.1v2.6l4.7-3C26.5,9.2,26.7,9.1,27,9.1z M20.1,22.2V9.8
	c0-0.3-0.4-0.7-0.9-0.7H5.8C5.4,9.1,5,9.5,5,9.8v12.4c0,0.3,0.4,0.6,0.8,0.6h13.4C19.7,22.9,20.1,22.6,20.1,22.2z M27,21.5v-11
	L21.5,14v4L27,21.5L27,21.5z"/>
</svg>
