<?xml version="1.0" encoding="utf-8"?>
<!-- Generator: Adobe Illustrator 19.2.1, SVG Export Plug-In . SVG Version: 6.00 Build 0)  -->
<svg version="1.1" id="Слой_1" xmlns="http://www.w3.org/2000/svg" xmlns:xlink="http://www.w3.org/1999/xlink" x="0px" y="0px"
	 viewBox="0 0 32 32" style="enable-background:new 0 0 32 32;" xml:space="preserve">
<style type="text/css">
	.st0{fill:none;}
</style>
<path d="M26.7,22.9c0.2,0,0.3,0.2,0.3,0.3v0.7c0,0.2-0.2,0.3-0.3,0.3h-21c-0.4,0-0.7-0.3-0.7-0.7V8.1
	c0-0.2,0.1-0.3,0.3-0.3H6c0.2,0,0.3,0.2,0.3,0.3v14.8H26.7z M9.2,16.3l3.6-3.6c0.3-0.3,0.7-0.3,1,0l3.6,3.7l3.5-3.5l-1.9-1.9
	c-0.7-0.6-0.2-1.8,0.7-1.8h5.1c0.4,0,0.7,0.3,0.7,0.7V15c0,0.6-0.5,1-1.1,1c-0.3,0-0.5-0.1-0.7-0.3l-1.9-1.9l-4,4
	c-0.3,0.3-0.7,0.3-0.9,0l-3.7-3.7l-3.1,3.1c-0.1,0.1-0.3,0.1-0.5,0l-0.5-0.5C9.1,16.7,9.1,16.5,9.2,16.3z M20.6,10.5l3.7,3.7v-3.7
	H20.6z"/>
</svg>
