<?xml version="1.0" encoding="utf-8"?>
<!-- Generator: Adobe Illustrator 19.2.1, SVG Export Plug-In . SVG Version: 6.00 Build 0)  -->
<svg version="1.1" id="Слой_1" xmlns="http://www.w3.org/2000/svg" xmlns:xlink="http://www.w3.org/1999/xlink" x="0px" y="0px"
	 viewBox="0 0 24 24" style="enable-background:new 0 0 24 24;" xml:space="preserve">
<style type="text/css">
	.st0{fill:#0D0F0F;}
</style>
<path class="st0" d="M6.1,18.6c-1.8-1.8-1.8-4.8,0-6.6l7-7c1.4-1.4,3.7-1.4,5.1,0s1.4,3.7,0,5.1L12.3,16c-1,1-2.6,1-3.5,0
	c-1-1-1-2.6,0-3.6l5-5c0.2-0.2,0.4-0.2,0.5,0L14.8,8c0.2,0.2,0.2,0.4,0,0.5l-5,5c-0.4,0.4-0.4,1.1,0,1.4c0.4,0.4,1.1,0.4,1.5,0
	l5.9-5.9c0.8-0.8,0.8-2.1,0-2.9s-2.1-0.8-2.9,0l-7,7c-1.2,1.2-1.2,3.2,0,4.4c1.2,1.2,3.2,1.2,4.4,0c1.7-1.7,4.4-4.4,6.1-6.1
	c0.2-0.2,0.4-0.2,0.5,0l0.5,0.5c0.2,0.2,0.2,0.4,0,0.5c-1.7,1.7-4.4,4.4-6.1,6.1C10.9,20.5,7.9,20.5,6.1,18.6z"/>
</svg>
