<?xml version="1.0" encoding="utf-8"?>
<!-- Generator: Adobe Illustrator 19.2.1, SVG Export Plug-In . SVG Version: 6.00 Build 0)  -->
<svg version="1.1" id="Слой_1" xmlns="http://www.w3.org/2000/svg" xmlns:xlink="http://www.w3.org/1999/xlink" x="0px" y="0px"
	 viewBox="0 0 24 24" style="enable-background:new 0 0 24 24;" xml:space="preserve">
<style type="text/css">
	.st0{fill:#0D0F0F;}
</style>
<path class="st0" d="M18.5,5C19.3,5,20,5.7,20,6.5v11c0,0.8-0.7,1.5-1.5,1.5h-13C4.7,19,4,18.3,4,17.5v-11C4,5.7,4.7,5,5.5,5H18.5z
	 M5.5,6.9v0.8C5.5,7.8,5.7,8,5.9,8h1.3c0.2,0,0.4-0.2,0.4-0.4V6.9c0-0.2-0.2-0.4-0.4-0.4H5.9C5.7,6.5,5.5,6.7,5.5,6.9z M18.5,17.3
	V9.3h-13v8.1c0,0.1,0.1,0.2,0.2,0.2h12.6C18.4,17.5,18.5,17.4,18.5,17.3z M18.5,7.6V6.9c0-0.2-0.2-0.4-0.4-0.4H9.4
	C9.2,6.5,9,6.7,9,6.9v0.8C9,7.8,9.2,8,9.4,8h8.8C18.3,8,18.5,7.8,18.5,7.6z"/>
</svg>
