<?xml version="1.0" encoding="utf-8"?>
<!-- Generator: Adobe Illustrator 19.2.1, SVG Export Plug-In . SVG Version: 6.00 Build 0)  -->
<svg version="1.1" id="Слой_1" xmlns="http://www.w3.org/2000/svg" xmlns:xlink="http://www.w3.org/1999/xlink" x="0px" y="0px"
	 viewBox="0 0 32 32" style="enable-background:new 0 0 32 32;" xml:space="preserve">
<style type="text/css">
	.st0{fill:#6F6F6F;}
</style>
<path d="M25,8.6c0.8,0.3,1.3,1.1,1.3,1.9c0,9.5-5.8,14.8-9.5,16.4c-0.5,0.2-1.1,0.2-1.6,0c-4.6-1.9-9.5-7.8-9.5-16.4c0-0.8,0.5-1.5,1.2-1.9l8.3-3.4C15.4,5,15.7,5,16,5c0.2,0,0.6,0,0.8,0.1L25,8.6z M16.3,25.5c4.2-1.7,8.7-7.5,8.6-15.1c0-0.3-0.1-0.5-0.4-0.6l-8.2-3.4c-0.2-0.1-0.4-0.1-0.6,0L7.4,9.9c-0.3,0.1-0.4,0.3-0.4,0.6c0,7.6,4.5,13.4,8.6,15.1C15.9,25.6,16.1,25.6,16.3,25.5z M16,22.6c-2.8-1.5-5.7-5.6-6.1-10.8L16,9.3V22.6z M14.6,19.8v-8.5l-3.3,1.4C11.8,15.6,13,18.1,14.6,19.8z"/>
</svg>
