<?xml version="1.0" encoding="utf-8"?>
<!-- Generator: Adobe Illustrator 19.2.1, SVG Export Plug-In . SVG Version: 6.00 Build 0)  -->
<svg version="1.1" id="Слой_1" xmlns="http://www.w3.org/2000/svg" xmlns:xlink="http://www.w3.org/1999/xlink" x="0px" y="0px"
	 viewBox="0 0 24 24" style="enable-background:new 0 0 24 24;" xml:space="preserve">
<style type="text/css">
	.st0{fill:#0D0F0F;}
</style>
<path d="M12,8.1c-0.4,0-0.7,0.1-1.1,0.2c0.2,0.3,0.3,0.6,0.3,1c0,1.1-0.9,2-2,2c-0.3,0-0.7-0.1-1-0.3c-0.6,2.1,0.6,4.3,2.7,4.9c2.1,0.6,4.3-0.6,4.9-2.7s-0.6-4.3-2.7-4.9C12.7,8.1,12.3,8.1,12,8.1z M22,11.5C20.1,7.8,16.3,5.2,12,5.2S3.8,7.8,1.9,11.5c-0.2,0.3-0.2,0.7,0,1c1.9,3.7,5.7,6.3,10.1,6.3s8.1-2.5,10.1-6.3C22.2,12.2,22.2,11.8,22,11.5z M12,17.1c-3.5,0-6.7-1.9-8.4-5.1C5.3,8.9,8.5,6.9,12,6.9s6.7,1.9,8.4,5.1C18.7,15.1,15.5,17.1,12,17.1z"/>
</svg>
