<?xml version="1.0" encoding="utf-8"?>
<!-- Generator: Adobe Illustrator 19.2.1, SVG Export Plug-In . SVG Version: 6.00 Build 0)  -->
<svg version="1.1" id="Слой_1" xmlns="http://www.w3.org/2000/svg" xmlns:xlink="http://www.w3.org/1999/xlink" x="0px" y="0px"
	 viewBox="0 0 32 32" style="enable-background:new 0 0 32 32;" xml:space="preserve">
<style type="text/css">
	.st0{fill:none;}
</style>
<path d="M16,6.7c-5.2,0-9.3,4.2-9.3,9.3c0,5.2,4.1,9.3,9.3,9.3c5.1,0,9.3-4.1,9.3-9.3C25.3,10.9,21.1,6.7,16,6.7z
	 M16,5.3c5.8,0,10.7,4.8,10.7,10.7c0,5.9-4.8,10.7-10.7,10.7c-5.9,0-10.7-4.8-10.7-10.7C5.3,10.2,10.1,5.3,16,5.3z M14.5,20.1H15V15
	h-0.5c-0.3,0-0.5-0.2-0.5-0.5v-0.3c0-0.3,0.2-0.5,0.5-0.5h2.1c0.3,0,0.5,0.3,0.5,0.5v6h0.5c0.3,0,0.5,0.3,0.5,0.5V21
	c0,0.3-0.3,0.5-0.5,0.5h-3.1c-0.3,0-0.5-0.2-0.5-0.5v-0.3C13.9,20.4,14.2,20.1,14.5,20.1z M16,9.8c0.7,0,1.4,0.6,1.4,1.4
	c0,0.8-0.6,1.4-1.4,1.4c-0.8,0-1.4-0.6-1.4-1.4C14.6,10.5,15.2,9.8,16,9.8z"/>
</svg>
