<svg width="16" height="16" viewBox="0 0 16 16" fill="none" xmlns="http://www.w3.org/2000/svg">
<path d="M4.29688 4.34375C3.45312 5.23438 2 5.23438 1.15625 4.34375C0.265625 3.5 0.265625 2.04688 1.15625 1.20312C2 0.3125 3.45312 0.3125 4.29688 1.20312C5.1875 2.04688 5.1875 3.5 4.29688 4.34375ZM11.6562 11.7031C12.5 10.8125 13.9531 10.8125 14.7969 11.7031C15.6875 12.5469 15.6875 14 14.7969 14.8438C13.9531 15.7344 12.5 15.7344 11.6562 14.8438C10.7656 14 10.7656 12.5469 11.6562 11.7031ZM15.2656 1.8125C15.5469 2.09375 15.5469 2.5625 15.2656 2.84375L2.79688 15.3125C2.51562 15.5938 2.04688 15.5938 1.76562 15.3125L0.6875 14.2344C0.40625 13.9531 0.40625 13.4844 0.6875 13.2031L13.1562 0.734375C13.4375 0.453125 13.9062 0.453125 14.1875 0.734375L15.2656 1.8125Z"/>
</svg>
