<?xml version="1.0" encoding="utf-8"?>
<!-- Generator: Adobe Illustrator 19.2.1, SVG Export Plug-In . SVG Version: 6.00 Build 0)  -->
<svg version="1.1" id="Слой_1" xmlns="http://www.w3.org/2000/svg" xmlns:xlink="http://www.w3.org/1999/xlink" x="0px" y="0px"
	 viewBox="0 0 32 32" style="enable-background:new 0 0 32 32;" xml:space="preserve">
<style type="text/css">
	.st0{fill:none;}
</style>
<path d="M16,19.6c0.6,0,1.2,0.6,1.2,1.2c0,0.7-0.6,1.2-1.2,1.2c-0.7,0-1.2-0.5-1.2-1.2C14.8,20.2,15.3,19.6,16,19.6z
	 M16.3,18.6h-0.7c-0.3,0-0.5-0.2-0.5-0.5c0-3,3.4-2.8,3.4-4.6c0-0.9-0.8-1.8-2.5-1.8c-1.2,0-1.9,0.4-2.5,1.2
	c-0.2,0.2-0.5,0.3-0.7,0.1l-0.6-0.4c-0.3-0.2-0.3-0.5-0.1-0.7c0.9-1.2,2-1.9,3.9-1.9c2.2,0,4.2,1.3,4.2,3.5c0,2.9-3.4,2.7-3.4,4.6
	C16.8,18.4,16.6,18.6,16.3,18.6z M16,6.7c-5.2,0-9.3,4.2-9.3,9.3c0,5.2,4.1,9.3,9.3,9.3c5.1,0,9.3-4.1,9.3-9.3
	C25.3,10.9,21.1,6.7,16,6.7z M16,5.3c5.8,0,10.7,4.8,10.7,10.7c0,5.9-4.8,10.7-10.7,10.7c-5.9,0-10.7-4.8-10.7-10.7
	C5.3,10.2,10.1,5.3,16,5.3z"/>
</svg>
