<?xml version="1.0" encoding="utf-8"?>
<!-- Generator: Adobe Illustrator 19.2.1, SVG Export Plug-In . SVG Version: 6.00 Build 0)  -->
<svg version="1.1" id="Слой_1" xmlns="http://www.w3.org/2000/svg" xmlns:xlink="http://www.w3.org/1999/xlink" x="0px" y="0px"
	 viewBox="0 0 20 20" style="enable-background:new 0 0 20 20;" xml:space="preserve">
<style type="text/css">
	.st0{fill:#51A48E;}
</style>
<path d="M10,3.2c3.7,0,6.8,3.1,6.8,6.8c0,3.7-3.1,6.8-6.8,6.8c-3.7,0-6.8-3-6.8-6.8C3.2,6.3,6.3,3.2,10,3.2z M10,15.5c3,0,5.5-2.4,5.5-5.5c0-3-2.5-5.5-5.5-5.5C7,4.5,4.5,7,4.5,10C4.5,13,7,15.5,10,15.5z M12.9,8.5c0,1.8-2,1.9-2,2.5v0.2c0,0.2-0.1,0.3-0.3,0.3H9.4c-0.2,0-0.3-0.1-0.3-0.3V11c0-1,0.7-1.4,1.3-1.7c0.5-0.3,0.8-0.4,0.8-0.8c0-0.5-0.6-0.8-1.1-0.8C9.4,7.7,9.1,8,8.7,8.5C8.6,8.7,8.4,8.7,8.2,8.6L7.5,8C7.3,7.9,7.3,7.7,7.4,7.6c0.6-1,1.4-1.5,2.7-1.5C11.5,6.1,12.9,7.1,12.9,8.5z M11.1,13.1c0,0.7-0.5,1.1-1.1,1.1c-0.7,0-1.1-0.5-1.1-1.1c0-0.6,0.5-1.1,1.1-1.1C10.6,11.9,11.1,12.4,11.1,13.1z"/>
</svg>
