<?xml version="1.0" encoding="utf-8"?>
<!-- Generator: Adobe Illustrator 19.2.1, SVG Export Plug-In . SVG Version: 6.00 Build 0)  -->
<svg version="1.1" id="Слой_1" xmlns="http://www.w3.org/2000/svg" xmlns:xlink="http://www.w3.org/1999/xlink" x="0px" y="0px"
	 viewBox="0 0 24 24" style="enable-background:new 0 0 24 24;" xml:space="preserve">
<path d="M23.1,19.6c0.1,0.1,0.2,0.3,0.2,0.5c0,0.1-0.1,0.3-0.1,0.4l-0.4,0.4c-0.1,0.1-0.3,0.2-0.4,0.2c-0.1,0-0.3,0-0.4-0.1L1,4.4C0.8,4.4,0.7,4.2,0.7,4c0-0.1,0.1-0.3,0.1-0.4l0.4-0.5C1.3,3.1,1.5,3,1.7,3C1.8,3,1.9,3.1,2,3.1L23.1,19.6z M11.2,8.2c0.2,0,0.6-0.1,0.8-0.1c2.1,0,3.8,1.7,3.9,3.8L11.2,8.2z M12.8,15.9c-0.2,0-0.6,0.1-0.8,0.1c-2.1,0-3.9-1.7-3.9-3.8L12.8,15.9z M12,6.9c-0.7,0-1.4,0.1-2.1,0.3L8.3,5.9c1.2-0.4,2.4-0.7,3.7-0.7c4.3,0,8.1,2.5,10,6.3c0.1,0.1,0.1,0.4,0.1,0.5c0,0.2-0.1,0.4-0.1,0.5c-0.4,0.8-1.2,2-1.9,2.6l-1.3-1c0.5-0.5,1.2-1.5,1.5-2.1C18.7,8.9,15.5,6.9,12,6.9z M12,17.1c0.7,0,1.4-0.1,2-0.2l1.6,1.3c-1.2,0.4-2.4,0.6-3.7,0.6c-4.3,0-8.1-2.5-10-6.2c-0.1-0.1-0.1-0.4-0.1-0.5c0-0.2,0-0.4,0.1-0.5c0.4-0.8,1.2-2,1.9-2.6l1.3,1C4.7,10.4,4,11.4,3.7,12C5.3,15.1,8.5,17.1,12,17.1z"/>
</svg>
