<?xml version="1.0" encoding="utf-8"?>
<!-- Generator: Adobe Illustrator 19.2.1, SVG Export Plug-In . SVG Version: 6.00 Build 0)  -->
<svg version="1.1" id="Слой_1" xmlns="http://www.w3.org/2000/svg" xmlns:xlink="http://www.w3.org/1999/xlink" x="0px" y="0px"
	 viewBox="0 0 20 20" style="enable-background:new 0 0 20 20;" xml:space="preserve">
<style type="text/css">
	.st0{fill:#E0B548;}
</style>
<path d="M8.8,8.4C8.8,8.2,8.9,8,9.1,8h1.7c0.2,0,0.4,0.2,0.4,0.4L11,11.9c0,0.2-0.2,0.3-0.4,0.3H9.4c-0.2,0-0.4-0.1-0.4-0.3L8.8,8.4z M11.3,14c0,0.8-0.6,1.3-1.3,1.3c-0.8,0-1.3-0.6-1.3-1.3c0-0.7,0.6-1.3,1.3-1.3C10.7,12.7,11.3,13.3,11.3,14z M11.3,2.7l7.5,13c0.6,1-0.2,2.2-1.3,2.2h-15c-1.2,0-1.9-1.3-1.3-2.2l7.5-13C9.3,1.7,10.7,1.8,11.3,2.7z M2.7,16.2c-0.1,0.1,0,0.3,0.2,0.3h14.3c0.2,0,0.3-0.1,0.2-0.3L10.2,3.8c-0.1-0.1-0.2-0.1-0.3,0L2.7,16.2z"/>
</svg>
