<?xml version="1.0" encoding="utf-8"?>
<!-- Generator: Adobe Illustrator 19.2.1, SVG Export Plug-In . SVG Version: 6.00 Build 0)  -->
<svg version="1.1" id="Слой_1" xmlns="http://www.w3.org/2000/svg" xmlns:xlink="http://www.w3.org/1999/xlink" x="0px" y="0px"
	 viewBox="0 0 16 16" style="enable-background:new 0 0 16 16;" xml:space="preserve">
<style type="text/css">
	.st0{fill:#0D0F0F;}
</style>
<path class="st0" d="M8,1.2c3.7,0,6.8,3,6.8,6.8c0,3.7-3,6.8-6.8,6.8c-3.7,0-6.8-3-6.8-6.8C1.2,4.3,4.3,1.2,8,1.2z M8,13.5
	c3,0,5.5-2.4,5.5-5.5c0-3-2.5-5.5-5.5-5.5C5,2.5,2.5,5,2.5,8C2.5,11,5,13.5,8,13.5z M9.7,10.6L7.3,8.9C7.3,8.9,7.2,8.8,7.2,8.7V4.2
	c0-0.2,0.1-0.3,0.3-0.3h0.9c0.2,0,0.3,0.2,0.3,0.3v3.9l1.8,1.3c0.2,0.1,0.2,0.3,0.1,0.5l-0.5,0.7C10,10.7,9.8,10.7,9.7,10.6z"/>
</svg>
