<?xml version="1.0" encoding="utf-8"?>
<!-- Generator: Adobe Illustrator 19.2.1, SVG Export Plug-In . SVG Version: 6.00 Build 0)  -->
<svg version="1.1" id="Слой_1" xmlns="http://www.w3.org/2000/svg" xmlns:xlink="http://www.w3.org/1999/xlink" x="0px" y="0px"
	 viewBox="0 0 24 24" style="enable-background:new 0 0 24 24;" xml:space="preserve">
<style type="text/css">
	.st0{fill:none;}
</style>
<path d="M23,6.1c-0.3,1.5-3.4,5.8-3.4,5.8c-0.3,0.4-0.4,0.6,0,1.1c0.2,0.2,3.4,3.3,3.8,4.7c0.2,0.7-0.1,1.1-0.9,1.1
	h-2.5c-0.9,0-1.2-0.7-2.9-2.4c-1.5-1.5-2.1-1.7-2.5-1.7c-0.8,0-0.6,0.3-0.6,3.2c0,0.6-0.2,0.9-1.8,0.9c-2.6,0-5.6-1.6-7.7-4.6
	c-3.1-4.4-4-7.7-4-8.4c0-0.4,0.2-0.7,0.9-0.7h2.5c0.6,0,0.9,0.3,1.2,1c1.2,3.6,3.3,6.7,4.1,6.7c0.3,0,0.5-0.2,0.5-1V8.2
	c-0.1-1.7-1-1.8-1-2.4c0-0.3,0.2-0.6,0.6-0.6h3.9c0.6,0,0.7,0.3,0.7,0.9v5c0,0.5,0.3,0.7,0.4,0.7c0.3,0,0.6-0.2,1.2-0.8
	c1.8-2.1,3.1-5.2,3.1-5.2c0.2-0.4,0.5-0.7,1.1-0.7h2.5C23,5.2,23.1,5.6,23,6.1z"/>
</svg>
