<svg width="31" height="22" viewBox="0 0 31 22" fill="none" xmlns="http://www.w3.org/2000/svg">
<path d="M27.3333 7.25C26.0677 7.25 24.9896 6.5 24.5677 5.375H20.8177C23.8177 7.15625 25.8802 10.3438 26.1615 14H27.3333C28.1302 14 28.8333 14.7031 28.8333 15.5V20C28.8333 20.8438 28.1302 21.5 27.3333 21.5H22.8333C21.9896 21.5 21.3333 20.8438 21.3333 20V15.5C21.3333 14.7031 21.9896 14 22.8333 14H23.9115C23.6302 10.9062 21.6615 8.23438 18.9427 6.96875C18.7552 7.57812 18.2396 8 17.5833 8H13.0833C12.3802 8 11.8646 7.57812 11.6771 6.96875C8.95834 8.23438 6.98959 10.9062 6.70834 14H7.83334C8.63022 14 9.33334 14.7031 9.33334 15.5V20C9.33334 20.8438 8.63022 21.5 7.83334 21.5H3.33334C2.48959 21.5 1.83334 20.8438 1.83334 20V15.5C1.83334 14.7031 2.48959 14 3.33334 14H4.45834C4.73959 10.3438 6.80209 7.15625 9.84897 5.375H6.05209C5.63022 6.5 4.55209 7.25 3.33334 7.25C1.64584 7.25 0.333344 5.9375 0.333344 4.25C0.333344 2.60938 1.64584 1.25 3.33334 1.25C4.55209 1.25 5.63022 2.04688 6.05209 3.125H11.5833V2C11.5833 1.20312 12.2396 0.5 13.0833 0.5H17.5833C18.3802 0.5 19.0833 1.20312 19.0833 2V3.125H24.5677C24.9896 2.04688 26.0677 1.25 27.3333 1.25C28.974 1.25 30.3333 2.60938 30.3333 4.25C30.3333 5.9375 28.974 7.25 27.3333 7.25ZM26.5833 4.20312V4.34375V4.4375C26.6771 4.8125 26.9583 5 27.3333 5C27.7083 5 28.0833 4.67188 28.0833 4.25C28.0833 3.875 27.7083 3.5 27.3333 3.5C26.9583 3.5 26.6771 3.73438 26.5833 4.10938V4.20312ZM4.08334 4.34375V4.20312L4.03647 4.10938C3.94272 3.73438 3.66147 3.5 3.33334 3.5C2.91147 3.5 2.58334 3.875 2.58334 4.25C2.58334 4.67188 2.91147 5 3.33334 5C3.66147 5 3.94272 4.8125 4.03647 4.4375L4.08334 4.34375ZM7.08334 16.25H4.08334V19.25H7.08334V16.25ZM16.8333 5.75V2.75H13.8333V5.75H16.8333ZM26.5833 16.25H23.5833V19.25H26.5833V16.25Z" fill="#00D7B0"/>
</svg>
