<svg width="24" height="24" viewBox="0 0 24 24" fill="none" xmlns="http://www.w3.org/2000/svg">
<path d="M24 12C24 15.9375 20.7656 19.125 16.875 19.125H6.375L9 21.7031C9.23438 21.9375 9.23438 22.2656 9 22.5L8.20312 23.2969C7.96875 23.5312 7.64062 23.5312 7.40625 23.2969L2.53125 18.4219C2.29688 18.1875 2.29688 17.8594 2.53125 17.625L7.40625 12.75C7.64062 12.5156 7.96875 12.5156 8.20312 12.75L9 13.5469C9.23438 13.7812 9.23438 14.1094 9 14.3438L6.375 16.875H16.875C19.5469 16.875 21.75 14.7188 21.75 12C21.75 11.1094 21.4688 10.2656 21.0469 9.51562C21 9.46875 20.9531 9.32812 20.9531 9.23438C20.9531 9.09375 21.0469 8.95312 21.1406 8.85938L21.9375 8.01562C22.1719 7.78125 22.5938 7.82812 22.7812 8.10938C23.5312 9.23438 24 10.5938 24 12ZM2.90625 14.5312C2.95312 14.5781 3 14.7188 3 14.8125C3 14.9531 2.90625 15.0938 2.8125 15.1875L2.01562 16.0312C1.78125 16.2656 1.35938 16.2188 1.17188 15.9375C0.421875 14.8125 0 13.4531 0 12C0 8.10938 3.1875 4.875 7.125 4.875H17.5781L14.9531 2.34375C14.7188 2.10938 14.7188 1.78125 14.9531 1.54688L15.75 0.75C15.9844 0.515625 16.3125 0.515625 16.5469 0.75L21.4219 5.625C21.6562 5.85938 21.6562 6.1875 21.4219 6.42188L16.5469 11.2969C16.3125 11.5312 15.9844 11.5312 15.75 11.2969L14.9531 10.5C14.7188 10.2656 14.7188 9.9375 14.9531 9.70312L17.5781 7.125H7.125C4.40625 7.125 2.25 9.32812 2.25 12C2.25 12.9375 2.48438 13.7812 2.90625 14.5312Z" fill="#00D7B0"/>
</svg>
