<svg width="28" height="22" viewBox="0 0 28 22" fill="none" xmlns="http://www.w3.org/2000/svg">
<path d="M27.0729 12.1719C27.1198 12.4062 27.1666 12.6406 27.1666 12.875V16.2031C27.1666 19.1562 24.7291 21.5 21.7291 21.5H19.9948C17.1823 21.5 14.8385 19.3906 14.6041 16.5781L14.4635 14.75H12.8229L12.6823 16.5781C12.4479 19.3906 10.1041 21.5 7.29163 21.5H5.55725C2.55725 21.5 0.166626 19.1562 0.166626 16.2031V12.875C0.166626 12.6875 0.166626 12.3594 0.213501 12.1719L2.36975 3.64062C2.651 2.51562 3.35413 1.57812 4.38538 1.01562C5.36975 0.5 6.5885 0.359375 7.66663 0.734375L8.36975 0.96875C8.79163 1.10938 8.97913 1.53125 8.8385 1.90625L8.60413 2.65625C8.4635 3.03125 8.04163 3.21875 7.66663 3.125L7.05725 2.89062C6.54163 2.75 5.97913 2.75 5.51038 2.98438C4.99475 3.21875 4.66663 3.6875 4.526 4.20312L2.74475 11.4219C3.776 11.0938 5.0885 10.8125 6.54163 10.8125C8.41663 10.8125 10.5729 11.2344 12.776 12.5H14.5104C16.7135 11.2344 18.8698 10.8125 20.7448 10.8125C22.1979 10.8125 23.5104 11.0938 24.5416 11.4219L22.7604 4.20312C22.6198 3.6875 22.2916 3.21875 21.776 2.98438C21.3073 2.75 20.7448 2.75 20.2291 2.89062L19.6198 3.125C19.2448 3.21875 18.8229 3.03125 18.6823 2.65625L18.4479 1.90625C18.3073 1.53125 18.4948 1.10938 18.9166 0.96875L19.6198 0.734375C20.6979 0.359375 21.9166 0.5 22.901 1.01562C23.9323 1.57812 24.6354 2.51562 24.9166 3.64062L27.0729 12.1719ZM10.4323 16.3906L10.6198 13.9531C9.30725 13.3438 7.94788 13.0625 6.54163 13.0625C4.80725 13.0625 3.30725 13.5312 2.41663 13.9062V16.2031C2.41663 17.8906 3.82288 19.25 5.55725 19.25H7.29163C8.93225 19.25 10.2916 18.0312 10.4323 16.3906ZM24.9166 16.2031V13.9062C23.9791 13.5312 22.4791 13.0625 20.7448 13.0625C19.3385 13.0625 17.9791 13.3438 16.6666 13.9531L16.8541 16.3906C16.9948 18.0312 18.3541 19.25 19.9948 19.25H21.7291C23.4635 19.25 24.9166 17.8906 24.9166 16.2031Z" fill="#00D7B0"/>
</svg>
