<svg width="24" height="24" viewBox="0 0 24 24" fill="none" xmlns="http://www.w3.org/2000/svg">
<path d="M23.2916 12C23.2916 18.4219 18.0416 23.625 11.6666 23.625C8.66663 23.6719 5.901 22.5 3.8385 20.6719C3.60413 20.4375 3.60413 20.0625 3.8385 19.8281L4.63538 19.0312C4.82288 18.8438 5.19788 18.8438 5.38538 19.0312C7.07288 20.4844 9.22913 21.375 11.6666 21.375C16.8229 21.375 21.0416 17.2031 21.0416 12C21.0416 6.84375 16.8229 2.625 11.6666 2.625C9.04163 2.625 6.69788 3.70312 5.01038 5.4375L7.30725 7.6875C7.63538 8.01562 7.401 8.625 6.88538 8.625H0.885376C0.557251 8.625 0.322876 8.39062 0.322876 8.0625V2.15625C0.322876 1.64062 0.932251 1.40625 1.26038 1.73438L3.36975 3.84375C5.47913 1.73438 8.43225 0.375 11.6666 0.375C18.0416 0.375 23.2448 5.57812 23.2916 12ZM15.4166 16.2188C15.276 16.5 14.901 16.5469 14.6666 16.3594L10.5416 13.3594V5.4375C10.5416 5.15625 10.776 4.875 11.1041 4.875H12.2291C12.5104 4.875 12.7916 5.15625 12.7916 5.4375V12.1875L15.9791 14.5312C16.2135 14.7188 16.2604 15.0469 16.1198 15.3281L15.4166 16.2188Z" fill="#00D7B0"/>
</svg>
