<svg width="24" height="24" viewBox="0 0 24 24" fill="none" xmlns="http://www.w3.org/2000/svg">
<path d="M22.974 1.35938C23.349 0.984375 23.9583 1.26562 23.9583 1.73438V8.4375C23.9583 8.76562 23.6771 9 23.3958 9H16.6458C16.1771 9 15.8958 8.4375 16.2708 8.0625L18.8021 5.53125C17.1615 3.84375 14.8646 2.8125 12.3333 2.8125C7.22397 2.8125 3.14584 6.9375 3.14584 12C3.14584 17.1094 7.22397 21.1875 12.3333 21.1875C14.6771 21.1875 16.7865 20.3438 18.4271 18.8906C18.6615 18.7031 18.9896 18.7031 19.1771 18.8906L20.1146 19.8281C20.349 20.0625 20.349 20.4375 20.1146 20.6719C18.0521 22.5 15.2865 23.625 12.3333 23.625C5.91147 23.625 0.708344 18.4688 0.708344 12.0469C0.661469 5.625 5.91147 0.375 12.3333 0.375C15.5208 0.375 18.4271 1.6875 20.5365 3.79688L22.974 1.35938Z" fill="#00D7B0"/>
</svg>
