<svg width="24" height="24" viewBox="0 0 24 24" fill="none" xmlns="http://www.w3.org/2000/svg">
<path d="M13.8359 12.5L18.0547 16.7188C18.2891 16.9531 18.2891 17.3828 18.0547 17.6172L17.0781 18.5938C16.8438 18.8281 16.4141 18.8281 16.1797 18.5938L12 14.375L7.78125 18.5938C7.54688 18.8281 7.11719 18.8281 6.88281 18.5938L5.90625 17.6172C5.67188 17.3828 5.67188 16.9531 5.90625 16.7188L10.125 12.5L5.90625 8.32031C5.67188 8.08594 5.67188 7.65625 5.90625 7.42188L6.88281 6.44531C7.11719 6.21094 7.54688 6.21094 7.78125 6.44531L12 10.6641L16.1797 6.44531C16.4141 6.21094 16.8438 6.21094 17.0781 6.44531L18.0547 7.42188C18.2891 7.65625 18.2891 8.08594 18.0547 8.32031L13.8359 12.5Z"/>
</svg>
