<?xml version="1.0" encoding="utf-8"?>
<!-- Generator: Adobe Illustrator 19.2.1, SVG Export Plug-In . SVG Version: 6.00 Build 0)  -->
<svg version="1.1" id="Слой_1" xmlns="http://www.w3.org/2000/svg" xmlns:xlink="http://www.w3.org/1999/xlink" x="0px" y="0px"
	 viewBox="0 0 24 24" style="enable-background:new 0 0 24 24;" xml:space="preserve">
<style type="text/css">
	.st0{fill:none;}
</style>
<path d="M18.5,6.1C18.8,6.3,19,6.8,19,7.1v8.4c0,0.8-0.7,1.5-1.5,1.5H15v1.5c0,0.8-0.7,1.5-1.5,1.5h-7
	C5.7,20,5,19.3,5,18.5v-10C5,7.7,5.7,7,6.5,7H9V5.5C9,4.7,9.7,4,10.5,4h5.4c0.3,0,0.8,0.2,1.1,0.5L18.5,6.1z M13.3,18.5
	c0.1,0,0.2-0.1,0.2-0.2V17h-3C9.7,17,9,16.3,9,15.5v-7H6.7c-0.1,0-0.2,0.1-0.2,0.2v9.6c0,0.1,0.1,0.2,0.2,0.2H13.3z M17.3,15.5
	c0.1,0,0.2-0.1,0.2-0.2V9h-2.8C14.3,9,14,8.7,14,8.3V5.5h-3.3c-0.1,0-0.2,0.1-0.2,0.2v9.6c0,0.1,0.1,0.2,0.2,0.2H17.3z M17.5,7.5
	V7.2c0-0.1,0-0.1-0.1-0.1l-1.5-1.5c0,0-0.1-0.1-0.1-0.1h-0.3v2H17.5z"/>
</svg>
