<?xml version="1.0" encoding="utf-8"?>
<!-- Generator: Adobe Illustrator 19.2.1, SVG Export Plug-In . SVG Version: 6.00 Build 0)  -->
<svg version="1.1" id="Слой_1" xmlns="http://www.w3.org/2000/svg" xmlns:xlink="http://www.w3.org/1999/xlink" x="0px" y="0px"
	 viewBox="0 0 32 32" style="enable-background:new 0 0 32 32;" xml:space="preserve">
<style type="text/css">
	.st0{fill:none;}
</style>
<path d="M19.4,6.4c-3.4,0-6.2,2.8-6.2,6.2c0,0.8,0.1,1.6,0.4,2.3l-7.3,7.3v3.4h4.1v-2.8h2.8v-2.8h2.1l1.8-1.8
	c0.7,0.3,1.5,0.4,2.3,0.4c3.4,0,6.2-2.8,6.2-6.2C25.6,9.2,22.8,6.4,19.4,6.4z M19.4,5c4.2,0,7.6,3.4,7.6,7.6c0,4.2-3.4,7.6-7.6,7.6
	c-0.7,0-1.3,0-1.9-0.2l-1.3,1.3c-0.2,0.2-0.5,0.3-0.7,0.3h-0.8v1.7c0,0.6-0.5,1-1,1h-1.7V26c0,0.6-0.5,1-1,1H6c-0.6,0-1-0.4-1-1
	v-3.9c0-0.2,0.1-0.6,0.3-0.7l6.8-6.8c-0.2-0.6-0.2-1.2-0.2-1.9C11.9,8.4,15.2,5,19.4,5z M21.5,9.6c-0.5,0-0.9,0.4-0.9,0.9
	c0,0.5,0.3,0.9,0.9,0.9c0.5,0,0.9-0.3,0.9-0.9C22.4,10,22,9.6,21.5,9.6z M21.5,8.4c1.1,0,2.1,0.9,2.1,2.1c0,1.2-0.9,2.1-2.1,2.1
	c-1.2,0-2.1-0.9-2.1-2.1C19.4,9.4,20.3,8.4,21.5,8.4z"/>
</svg>
