<?xml version="1.0" encoding="utf-8"?>
<!-- Generator: Adobe Illustrator 19.2.1, SVG Export Plug-In . SVG Version: 6.00 Build 0)  -->
<svg version="1.1" id="Слой_1" xmlns="http://www.w3.org/2000/svg" xmlns:xlink="http://www.w3.org/1999/xlink" x="0px" y="0px"
	 viewBox="0 0 32 32" style="enable-background:new 0 0 32 32;" xml:space="preserve">
<style type="text/css">
	.st0{fill:#0D0F0F;}
</style>
<path class="st0" d="M28.5,11.6c0.7,0.3,1.2,0.9,1.2,1.6c0,0.8-0.5,1.4-1.2,1.6l-4.9,1.6l0.6,5c0,1.5-3.7,2.8-8.3,2.8
	c-4.6,0-8.3-1.2-8.3-2.8l0.6-5l-2.3-0.8c-0.1,0.2-0.2,0.3-0.3,0.6c0.3,0.3,0.6,0.6,0.6,1.1c0,0.6-0.3,1-0.8,1.2l0.8,4.8
	c0.1,0.4-0.2,0.8-0.5,0.8H4.1c-0.3,0-0.6-0.4-0.5-0.8l0.8-4.8c-0.5-0.2-0.8-0.7-0.8-1.2c0-0.5,0.3-1,0.8-1.2c0-0.3,0.2-0.6,0.3-0.9
	l-1.3-0.4c-0.7-0.3-1.2-0.9-1.2-1.7c0-0.7,0.4-1.4,1.2-1.6L14.8,8c0.8-0.3,1.6-0.3,2.4,0L28.5,11.6z M22.8,21.4l-0.6-4.5l-5.1,1.6
	c-1.2,0.4-2.2,0-2.4,0l-5.1-1.6l-0.6,4.5c0.5,0.5,2.8,1.5,6.9,1.5C20,22.9,22.4,21.9,22.8,21.4z M28.1,13.6c0.3-0.1,0.3-0.6,0-0.6
	L16.7,9.2c-0.3-0.1-0.9-0.2-1.5,0L3.8,12.9c-0.3,0.1-0.3,0.6,0,0.6l1.8,0.6c0.4-0.3,0.9-0.6,1.4-0.6l8.8-1.6
	c0.3-0.1,0.7,0.2,0.8,0.6c0.1,0.3-0.2,0.7-0.6,0.8l-8.4,1.6l7.5,2.4c0.5,0.1,1,0.1,1.5,0L28.1,13.6z"/>
</svg>
