<?xml version="1.0" encoding="utf-8"?>
<!-- Generator: Adobe Illustrator 19.2.1, SVG Export Plug-In . SVG Version: 6.00 Build 0)  -->
<svg version="1.1" id="Слой_1" xmlns="http://www.w3.org/2000/svg" xmlns:xlink="http://www.w3.org/1999/xlink" x="0px" y="0px"
	 viewBox="0 0 24 24" style="enable-background:new 0 0 24 24;" xml:space="preserve">
<style type="text/css">
	.st0{fill:#0D0F0F;}
</style>
<path class="st0" d="M13.8,10.2c1.6,1.6,1.7,4.2,0.3,5.8c-0.2,0.3-0.1,0.1-2.6,2.7c-1.7,1.7-4.5,1.7-6.2,0c-1.7-1.7-1.7-4.5,0-6.2
	c1-1,1.6-1.6,2-2c0.2-0.2,0.6-0.1,0.6,0.3C7.9,11.1,8,11.7,8,12c0,0.1,0,0.3-0.1,0.3l-1.4,1.4c-1,1-1,2.7,0,3.7s2.7,1,3.7,0l2.3-2.3
	c1-1,1-2.7,0-3.7c-0.2-0.2-0.5-0.4-0.7-0.5c-0.1-0.1-0.2-0.3-0.2-0.4c0-0.3,0.2-0.7,0.5-0.9l0.1-0.1c0.1-0.1,0.3-0.2,0.4-0.1
	C13.1,9.6,13.5,9.8,13.8,10.2z M18.7,5.3c1.7,1.7,1.7,4.5,0,6.2c-1,1-1.6,1.6-2,2c-0.2,0.2-0.6,0.1-0.6-0.3c0-0.3-0.1-0.9-0.2-1.2
	c0-0.1,0-0.3,0.1-0.3l1.4-1.4c1-1,1-2.7,0-3.7c-1-1-2.7-1-3.7,0l-2.3,2.3c-1,1-1,2.7,0,3.7c0.2,0.2,0.5,0.4,0.7,0.5
	c0.1,0.1,0.2,0.3,0.2,0.4c0,0.3-0.2,0.7-0.5,0.9l-0.1,0.1c-0.1,0.1-0.3,0.2-0.4,0.1c-0.4-0.2-0.8-0.5-1.1-0.8
	C8.6,12.2,8.5,9.7,9.9,8c0.2-0.3,0.1-0.1,2.6-2.7C14.2,3.6,17,3.6,18.7,5.3z"/>
</svg>
