<?xml version="1.0" encoding="utf-8"?>
<!-- Generator: Adobe Illustrator 19.2.1, SVG Export Plug-In . SVG Version: 6.00 Build 0)  -->
<svg version="1.1" id="Слой_1" xmlns="http://www.w3.org/2000/svg" xmlns:xlink="http://www.w3.org/1999/xlink" x="0px" y="0px"
	 viewBox="0 0 32 32" style="enable-background:new 0 0 32 32;" xml:space="preserve">
<style type="text/css">
	.st0{fill:#0D0F0F;}
</style>
<path class="st0" d="M23.6,14.6c1.1,0,2.1,0.9,2.1,2.1v8.3c0,1.2-0.9,2.1-2.1,2.1H8.4c-1.2,0-2.1-0.9-2.1-2.1v-8.3
	c0-1.1,0.9-2.1,2.1-2.1h0.7v-2.8C9.1,8.1,12.2,5,16,5c3.8,0,6.9,3.2,6.9,7v2.7H23.6z M10.5,11.9v2.8h11v-2.8c0-3-2.5-5.5-5.5-5.5
	C12.9,6.4,10.5,8.9,10.5,11.9z M23.6,25.6c0.3,0,0.7-0.3,0.7-0.7v-8.3c0-0.3-0.3-0.7-0.7-0.7H8.4c-0.4,0-0.7,0.3-0.7,0.7v8.3
	c0,0.4,0.3,0.7,0.7,0.7H23.6z"/>
</svg>
