<?xml version="1.0" encoding="utf-8"?>
<!-- Generator: Adobe Illustrator 19.2.1, SVG Export Plug-In . SVG Version: 6.00 Build 0)  -->
<svg version="1.1" id="Слой_1" xmlns="http://www.w3.org/2000/svg" xmlns:xlink="http://www.w3.org/1999/xlink" x="0px" y="0px"
	 viewBox="0 0 24 24" style="enable-background:new 0 0 24 24;" xml:space="preserve">
<style type="text/css">
	.st0{fill:#0D0F0F;}
</style>
<path class="st0" d="M3.1,3.8h5.7C9,3.8,9.3,4,9.3,4.3v0.3c0,0.3-0.3,0.5-0.5,0.5H3.1c-0.4,0-0.7,0.3-0.7,0.7v12.4
	c0,0.4,0.3,0.7,0.7,0.7h5.7c0.3,0,0.5,0.3,0.5,0.5v0.3c0,0.3-0.3,0.5-0.5,0.5H3.1c-1.2,0-2.1-0.9-2.1-2.1V5.8C1,4.7,1.9,3.8,3.1,3.8
	z M15.1,4.6c0.2-0.2,0.5-0.2,0.7,0l7,7c0.2,0.2,0.2,0.5,0,0.7l-7,7c-0.2,0.2-0.6,0.2-0.7,0l-0.3-0.3c-0.2-0.2-0.2-0.5,0-0.7l5.6-5.7
	h-12c-0.3,0-0.5-0.2-0.5-0.5v-0.4c0-0.3,0.2-0.5,0.5-0.5h12l-5.7-5.6c-0.2-0.2-0.2-0.5,0-0.7L15.1,4.6z"/>
</svg>
