<?xml version="1.0" encoding="utf-8"?>
<!-- Generator: Adobe Illustrator 19.2.1, SVG Export Plug-In . SVG Version: 6.00 Build 0)  -->
<svg version="1.1" id="Слой_1" xmlns="http://www.w3.org/2000/svg" xmlns:xlink="http://www.w3.org/1999/xlink" x="0px" y="0px"
	 viewBox="0 0 32 32" style="enable-background:new 0 0 32 32;" xml:space="preserve">
<style type="text/css">
	.st0{fill:none;}
</style>
<path d="M22.5,24.9c0.2,0,0.3,0.2,0.3,0.3V26c0,0.2-0.2,0.3-0.3,0.3H9.5c-0.2,0-0.3-0.1-0.3-0.3v-0.7
	c0-0.2,0.1-0.3,0.3-0.3H22.5z M11.5,15.3c-0.2,0-0.3-0.1-0.3-0.3v-0.7c0-0.2,0.1-0.3,0.3-0.3h1.1c-0.8-0.8-1.4-2.3-1.4-3.4
	c0-2.6,2.1-4.8,4.8-4.8c2.6,0,4.8,2.2,4.8,4.8c0,1.1-0.7,2.7-1.5,3.4h1.1c0.2,0,0.3,0.2,0.3,0.3V15c0,0.2-0.2,0.3-0.3,0.3h-1.7v1.4
	c0,3.2,0.5,5.5,1.4,6.9h-1.6c-0.8-1.6-1.2-3.9-1.2-6.9v-1.4h-2.8v1.4c0,3-0.4,5.3-1.2,6.9h-1.5c0.9-1.3,1.4-3.7,1.4-6.9v-1.4H11.5z
	 M12.6,10.5c0,1.9,1.5,3.4,3.4,3.4c1.9,0,3.4-1.5,3.4-3.4c0-1.9-1.5-3.4-3.4-3.4C14.1,7.1,12.6,8.6,12.6,10.5z"/>
</svg>
