<?xml version="1.0" encoding="utf-8"?>
<!-- Generator: Adobe Illustrator 19.2.1, SVG Export Plug-In . SVG Version: 6.00 Build 0)  -->
<svg version="1.1" id="Слой_1" xmlns="http://www.w3.org/2000/svg" xmlns:xlink="http://www.w3.org/1999/xlink" x="0px" y="0px"
	 viewBox="0 0 20 20" style="enable-background:new 0 0 20 20;" xml:space="preserve">
<style type="text/css">
	.st0{fill:#6F6F6F;}
</style>
<path d="M10,2.3c4.3,0,7.8,3.5,7.8,7.8c0,4.3-3.5,7.8-7.8,7.8c-4.3,0-7.8-3.5-7.8-7.8C2.3,5.7,5.7,2.3,10,2.3z M10,16.3c3.4,0,6.3-2.8,6.3-6.3c0-3.4-2.8-6.3-6.3-6.3c-3.5,0-6.3,2.8-6.3,6.3C3.8,13.5,6.5,16.3,10,16.3z M11.9,13l-2.7-1.9c-0.1-0.1-0.1-0.2-0.1-0.3V5.6c0-0.2,0.2-0.4,0.4-0.4h1c0.2,0,0.4,0.2,0.4,0.4v4.4l2.1,1.5c0.2,0.1,0.2,0.3,0.1,0.5l-0.6,0.8C12.3,13.1,12.1,13.1,11.9,13z"/>
</svg>
