<?xml version="1.0" encoding="utf-8"?>
<!-- Generator: Adobe Illustrator 19.2.1, SVG Export Plug-In . SVG Version: 6.00 Build 0)  -->
<svg version="1.1" id="Слой_1" xmlns="http://www.w3.org/2000/svg" xmlns:xlink="http://www.w3.org/1999/xlink" x="0px" y="0px"
	 viewBox="0 0 20 20" style="enable-background:new 0 0 20 20;" xml:space="preserve">
<style type="text/css">
	.st0{fill:#D34D5C;}
</style>
<path d="M11.5,10l3.4,3.4c0.2,0.2,0.2,0.5,0,0.7l-0.8,0.8c-0.2,0.2-0.5,0.2-0.7,0L10,11.5l-3.4,3.4c-0.2,0.2-0.5,0.2-0.7,0l-0.8-0.8c-0.2-0.2-0.2-0.5,0-0.7L8.5,10L5.1,6.6C5,6.5,5,6.1,5.1,5.9l0.8-0.8C6.1,5,6.5,5,6.6,5.1L10,8.5l3.3-3.4c0.2-0.2,0.5-0.2,0.7,0l0.8,0.8c0.2,0.2,0.2,0.5,0,0.7L11.5,10z"/>
</svg>
