<?xml version="1.0" encoding="utf-8"?>
<!-- Generator: Adobe Illustrator 19.2.1, SVG Export Plug-In . SVG Version: 6.00 Build 0)  -->
<svg version="1.1" id="Слой_1" xmlns="http://www.w3.org/2000/svg" xmlns:xlink="http://www.w3.org/1999/xlink" x="0px" y="0px"
	 viewBox="0 0 32 32" style="enable-background:new 0 0 32 32;" xml:space="preserve">
<style type="text/css">
	.st0{fill:#0D0F0F;}
</style>
<path class="st0" d="M21.5,16c0.7,0,1.4,0.6,1.4,1.4c0,0.8-0.6,1.4-1.4,1.4c-0.8,0-1.4-0.6-1.4-1.4C20.1,16.6,20.7,16,21.5,16z
	 M24.9,9.1c1.1,0,2.1,0.9,2.1,2.1v11.7c0,1.5-1.2,2.8-2.8,2.8H9.1c-2.3,0-4.1-1.8-4.1-4.1v-11c0-2.3,1.8-4.1,4.1-4.1h13.1
	c1.1,0,2.1,0.9,2.1,2.1v0.7H24.9z M25.6,22.9V11.2c0-0.3-0.3-0.7-0.7-0.7H9.8c-0.4,0-0.7-0.3-0.7-0.7c0-0.3,0.3-0.7,0.7-0.7h13.1
	V8.4c0-0.3-0.3-0.7-0.7-0.7H9.1c-1.5,0-2.8,1.2-2.8,2.8v11c0,1.5,1.2,2.8,2.8,2.8h15.1C25,24.3,25.6,23.6,25.6,22.9z"/>
</svg>
