<?xml version="1.0" encoding="utf-8"?>
<!-- Generator: Adobe Illustrator 19.2.1, SVG Export Plug-In . SVG Version: 6.00 Build 0)  -->
<svg version="1.1" id="Слой_1" xmlns="http://www.w3.org/2000/svg" xmlns:xlink="http://www.w3.org/1999/xlink" x="0px" y="0px"
	 viewBox="0 0 32 32" style="enable-background:new 0 0 32 32;" xml:space="preserve">
<style type="text/css">
	.st0{fill:#0D0F0F;}
</style>
<path class="st0" d="M26.8,9.9c0.6,2.2-0.1,4.5-1.7,6.1c-1.6,1.6-4,2.3-6.2,1.7L10.6,26C10,26.7,9.1,27,8.2,27C7.4,27,6.6,26.7,6,26
	c-1.3-1.2-1.3-3.4,0-4.6l8.3-8.3c-0.6-2.2,0-4.6,1.7-6.2c1.6-1.6,3.9-2.3,6.1-1.7c0.4,0.1,0.7,0.4,0.9,0.8c0.1,0.4,0,0.9-0.3,1.2
	l-2.8,2.7l0.3,1.9l1.9,0.3l2.8-2.7C25.1,9.1,25.6,9,26,9.1C26.4,9.2,26.7,9.5,26.8,9.9z M24.1,15.1c1.2-1.2,1.7-2.9,1.4-4.5l-3,3
	L19,13l-0.6-3.6l3-3c-0.3,0-0.6-0.1-0.9-0.1c-1.3,0-2.6,0.6-3.6,1.5c-1.3,1.4-1.8,3.4-1.2,5.2l0.1,0.4l-8.9,8.9
	c-0.7,0.8-0.7,1.9,0,2.7c0.7,0.7,2,0.7,2.7,0l8.9-8.9l0.4,0.1C20.7,16.9,22.8,16.5,24.1,15.1z M8.5,22.9c0.3,0,0.7,0.3,0.7,0.7
	c0,0.4-0.3,0.7-0.7,0.7c-0.4,0-0.7-0.3-0.7-0.7C7.8,23.2,8.1,22.9,8.5,22.9z"/>
</svg>
