<svg width="28" height="32" viewBox="0 0 28 32" fill="none" xmlns="http://www.w3.org/2000/svg">
<path d="M20 22C24.375 22 28 25.625 28 30C28 31.125 27.0625 32 26 32H2C0.875 32 0 31.125 0 30C0 25.625 3.5625 22.0625 8 22.0625H8.25C9 22.0625 9.75 22.1875 10.5 22.4375C11.4375 22.75 13 23.0625 13.9375 23.0625C14.9375 23.0625 16.5 22.75 17.4375 22.4375C18.1875 22.1875 18.9375 22 19.6875 22H20ZM2 30H26C25.9375 26.75 23.25 24.0625 20 24H19.6875C19.25 24 18.75 24.125 18.125 24.375C17 24.75 15.125 25 13.9375 25C12.8125 25 10.9375 24.75 9.8125 24.375C9.1875 24.125 8.6875 24 8.25 24H8C4.6875 24.0625 2 26.75 2 30ZM3 14C2.4375 14 2 13.5625 2 13V12C2 5.4375 7.375 0 14 0C20.5625 0 26 5.4375 26 12V13C25.9375 16.875 22.8125 20 19 20H13C11.875 20 11 19.125 11 18C11 16.9375 11.875 16 13 16H15C16.0625 16 17 16.9375 17 18H19C21.75 18 23.9375 15.8125 24 13V12C24 6.5 19.5 2 14 2C8.4375 2 4 6.5 4 12V13C4 13.5625 3.5 14 3 14ZM14 6C13.9375 6 13.9375 6 13.9375 6C10.625 6 7.9375 8.6875 7.9375 12C7.9375 13.3125 8.6875 15.0625 9.5 16C9.25 16.5625 9 17.4375 9 18C9 18.125 9 18.1875 9 18.25C7.1875 16.75 6 14.5625 6 12C6 7.625 9.5625 4 14 4C18.375 4 22 7.625 22 12C22 12.9375 21.8125 13.8125 21.5 14.625C21 15.375 19.875 16 19 16H18.4375C19.25 15.0625 19.9375 13.25 19.9375 12C19.9375 8.6875 17.3125 6 14 6Z" fill="#00A894"/>
</svg>
