<svg width="24" height="32" viewBox="0 0 24 32" fill="none" xmlns="http://www.w3.org/2000/svg">
<path d="M23.0625 6.125C23.5625 6.625 24 7.5625 24 8.25V29C24 30.6875 22.625 32 21 32H3C1.3125 32 0 30.6875 0 29V3C0 1.375 1.3125 0 3 0H15.75C16.4375 0 17.375 0.4375 17.875 0.9375L23.0625 6.125ZM21.6875 7.5625L16.4375 2.3125C16.3125 2.1875 16.125 2.125 16 2.0625V8H21.9375C21.875 7.875 21.8125 7.6875 21.6875 7.5625ZM21 30C21.5 30 22 29.5625 22 29V10H15.5C14.625 10 14 9.375 14 8.5V2H3C2.4375 2 2 2.5 2 3V29C2 29.5625 2.4375 30 3 30H21ZM18.8125 16.875L10.375 25.1875C10.125 25.5 9.625 25.5 9.3125 25.1875L5.125 21C4.8125 20.6875 4.8125 20.1875 5.125 19.9375L5.625 19.375C5.9375 19.125 6.4375 19.125 6.6875 19.375L9.875 22.5625L17.25 15.25C17.5 14.9375 18 14.9375 18.3125 15.25L18.8125 15.8125C19.125 16.0625 19.125 16.5625 18.8125 16.875Z" fill="#00A894"/>
</svg>
