<svg width="32" height="33" viewBox="0 0 32 33" fill="none" xmlns="http://www.w3.org/2000/svg">
<path d="M31 17.875C31.375 19.3125 31.1875 21 30.4375 22.25C30.6875 23.6875 30.1875 25.3125 29.25 26.4375C29.375 29.8125 27.3125 32 23.625 32C23.4375 32.0625 21.375 32 21.0625 32C16.25 32.0625 12 29.5 10 29.5V30C10 31.125 9.0625 32 8 32H2C0.875 32 0 31.125 0 30V14C0 12.9375 0.875 12 2 12H8C8.625 12 9.25 12.375 9.625 12.875C9.8125 12.875 10 12.8125 10.125 12.75C11.5 12 13.6875 8.4375 15.1875 7C15.8125 6.375 16 5.3125 16.25 4.25C16.5625 2.375 17.25 0 19.125 0C22.875 0 24.3125 2.1875 24.3125 5.875C24.3125 7.75 23.5625 9.125 23.0625 10.1875H27.4375C29.9375 10.1875 31.9375 12.375 32 14.75C32 16 31.625 17.0625 31 17.875ZM2 30H8V14H2V30ZM28.5 17.3125C29.5 17 30 16 30 14.75C29.9375 13.5 28.875 12.1875 27.4375 12.1875H20.4375C20.4375 9.6875 22.3125 8.5 22.3125 5.875C22.3125 4.25 22.3125 2 19.125 2C17.875 3.3125 18.5 6.5 16.625 8.375C14.5 10.5 12.3125 14.75 10 14.75V27.5C12.625 27.5 16.5 30 21.0625 30C21.25 30 23.375 30.0625 23.625 30C26 30 27.6875 28.875 27.1875 25.625C28.1875 25.0625 28.9375 23.125 28.125 21.75C29.5 21 29.5 18 28.5 17.3125ZM6.5 27C6.5 27.875 5.8125 28.5 5 28.5C4.125 28.5 3.5 27.875 3.5 27C3.5 26.1875 4.125 25.5 5 25.5C5.8125 25.5 6.5 26.1875 6.5 27Z" fill="#00A894"/>
</svg>
