<svg width="121" height="49" viewBox="0 0 121 49" fill="none" xmlns="http://www.w3.org/2000/svg">
<path d="M86.1954 31.1077V-0.0497742H92.3939V31.1077H86.1954Z" fill="#F7A600"/>
<path d="M13.9551 40.3629H0.666748V9.20544H13.4208C19.6193 9.20544 23.231 12.6187 23.231 17.9578C23.231 21.4138 20.9114 23.6472 19.3059 24.3909C21.2223 25.2656 23.6754 27.2344 23.6754 31.3937C23.6754 37.2119 19.6193 40.3629 13.9551 40.3629ZM12.9301 14.6327H6.86523V21.8095H12.9301C15.5607 21.8095 17.0325 20.3651 17.0325 18.2199C17.0325 16.0771 15.5607 14.6327 12.9301 14.6327ZM13.3309 27.2797H6.86523V34.9379H13.3309C16.1411 34.9379 17.477 33.1885 17.477 31.0862C17.477 28.9863 16.1386 27.2797 13.3309 27.2797Z" fill="white"/>
<path d="M42.5815 27.5848V40.3629H36.4267V27.5848L26.8837 9.20544H33.6165L39.5479 21.7642L45.3894 9.20544H52.1222L42.5815 27.5848Z" fill="white"/>
<path d="M69.6953 40.3629H56.4069V9.20544H69.1609C75.3594 9.20544 78.9712 12.6187 78.9712 17.9578C78.9712 21.4138 76.6516 23.6472 75.0461 24.3909C76.9625 25.2656 79.4157 27.2344 79.4157 31.3937C79.4157 37.2119 75.3594 40.3629 69.6953 40.3629ZM68.6703 14.6327H62.6054V21.8095H68.6703C71.3008 21.8095 72.7727 20.3651 72.7727 18.2199C72.7727 16.0771 71.3008 14.6327 68.6703 14.6327ZM69.071 27.2797H62.6054V34.9379H69.071C71.8812 34.9379 73.2171 33.1885 73.2171 31.0862C73.2171 28.9863 71.8812 27.2797 69.071 27.2797Z" fill="white"/>
<path d="M112.372 14.6327V40.3652H106.173V14.6327H97.8785V9.20544H120.666V14.6327H112.372Z" fill="white"/>
</svg>
