<svg width="144" height="52" viewBox="0 0 144 52" fill="none" xmlns="http://www.w3.org/2000/svg">
<path d="M53.3112 22.9795H41.2323V12.3541C41.2323 11.4808 40.5264 10.7725 39.6563 10.7725H35.5671V39.9802C35.5671 40.8535 36.273 41.5618 37.1431 41.5618H41.2323V27.938H53.3173V39.9741C53.3051 40.8473 53.9988 41.5679 54.8689 41.5801H58.9825V12.3541C58.9825 11.4808 58.2766 10.7725 57.4064 10.7725H53.3112V22.9795ZM77.2985 18.4118V33.0493C77.3107 34.3805 76.617 35.6201 75.473 36.3041C72.2723 38.1605 68.9559 35.8339 68.9559 32.7806V19.9934C68.9559 19.1201 68.25 18.4118 67.3799 18.4118H63.2907V33.3057C63.3029 38.1055 67.173 41.9893 71.9558 42.0137H74.2803C79.0693 42.0015 82.9516 38.1055 82.9637 33.2996V19.9934C82.9637 19.1201 82.2579 18.4118 81.3877 18.4118H77.2985Z" fill="#D3E3F3"/>
<path d="M97.5801 18.3996C91.6471 18.3996 86.7912 22.6559 86.7912 28.6098V31.8279C86.7912 37.7818 91.6471 42.0137 97.5801 42.0137C103.513 42.0137 108.369 37.7818 108.369 31.8279V28.6098C108.375 22.6559 103.519 18.3996 97.5801 18.3996ZM102.679 32.2127C102.679 35.0278 100.385 36.9025 97.574 36.9025C94.7627 36.9025 92.4747 35.0278 92.4747 32.2127V28.1945C92.4747 25.3794 94.7688 23.5047 97.574 23.5047C100.379 23.5047 102.679 25.3794 102.679 28.1945V32.2127Z" fill="#D3E3F3"/>
<path d="M18.4437 13.3006C18.4437 7.0963 15.4316 1.75304 13.1375 0.0187747C13.1375 0.0187747 12.9611 -0.0789306 12.9793 0.171439C12.7907 12.1587 6.68735 15.4073 3.33447 19.7797C-4.40574 29.8799 2.78682 40.9512 10.1254 42.9969C14.2146 44.1449 9.17614 40.9695 8.52504 34.2706C7.7279 26.1855 18.4437 20.0056 18.4437 13.3006Z" fill="#D3E3F3"/>
<path d="M143.255 41.5802V20.8422C143.255 19.969 142.549 19.2606 141.678 19.2606H137.589V39.9864C137.583 40.8596 138.283 41.5741 139.153 41.5802H143.255Z" fill="#00A9E4"/>
<path d="M143.341 15.113C144.008 13.4958 143.243 11.6418 141.632 10.972C140.02 10.3021 138.173 11.07 137.505 12.6872C136.838 14.3044 137.603 16.1583 139.214 16.8282C140.826 17.4981 142.673 16.7301 143.341 15.113Z" fill="#00A9E4"/>
<path d="M122.985 18.3996C121.208 18.3874 119.456 18.7904 117.855 19.566V12.3846C117.855 11.5114 117.15 10.803 116.279 10.803H112.19V31.828C112.19 37.7819 117.046 42.0137 122.979 42.0137C128.912 42.0137 133.768 37.7819 133.768 31.828V28.6098C133.774 22.6559 128.93 18.3996 122.985 18.3996ZM128.091 32.2127C128.091 35.0278 125.796 36.9025 122.985 36.9025C120.18 36.9025 117.886 35.0278 117.886 32.2127V28.1946C117.886 25.3794 120.18 23.5047 122.985 23.5047C125.79 23.5047 128.091 25.3794 128.091 28.1946V32.2127Z" fill="#00A9E4"/>
<path d="M21.9608 17.3859C21.9121 17.3554 21.8452 17.331 21.8026 17.4103C21.6748 18.9187 20.1413 22.1429 18.1941 25.1107C11.5918 35.1622 15.3524 40.0108 17.47 42.6183C18.6992 44.1266 17.47 42.6183 20.5369 41.0733C24.3279 38.765 26.7862 34.7713 27.1513 30.338C27.7538 23.1933 23.482 18.6927 21.9608 17.3859Z" fill="#00A9E4"/>
</svg>
