<svg width="170" height="32" viewBox="0 0 170 32" fill="none" xmlns="http://www.w3.org/2000/svg">
<path d="M49.3529 22.2497L38.5059 3.78203C36.1279 -0.0671071 30.3289 -0.108056 28.0342 3.94582L16.6448 23.1505C14.5171 26.6721 17.1455 31.0945 21.4009 31.0945H44.2215C48.5185 31.0945 51.731 26.5493 49.3529 22.2497Z" fill="#3156AA"/>
<path d="M33.7097 23.6835L33.0422 22.537C32.4164 21.4723 31.0397 19.1792 31.0397 19.1792L21.8614 3.53697C19.4834 0.0563738 13.8512 -0.230265 11.4732 4.1512L0.792983 22.2913C-1.41815 26.0994 1.21018 31.0542 6.00793 31.0952H28.7033H38.3823H44.1396C38.2571 31.1361 36.3798 28.1469 33.7097 23.6835Z" fill="#1972E2"/>
<path d="M33.7101 23.6833L33.0425 22.5368C32.4167 21.4721 31.04 19.1791 31.04 19.1791L25.1157 8.94196L16.605 23.192C14.4774 26.7135 17.1056 31.1359 21.3611 31.1359H28.662H38.3409H44.1399C38.2158 31.095 36.3801 28.1467 33.7101 23.6833Z" fill="url(#paint0_linear_346_1446)"/>
<path d="M144.805 16.9173C144.854 24.1103 150.814 29.7687 158.143 29.6728C162.686 29.6728 166.204 28.1383 168.843 25.1173L167.181 23.7266C166.106 22.8635 164.591 22.8155 163.517 23.6307C162.051 24.6857 160.244 25.2611 158.094 25.2611C153.013 25.2611 149.838 22.0482 149.838 16.8214C149.838 11.6424 152.915 8.57346 158.094 8.57346C160.195 8.57346 162.051 9.10093 163.517 10.2039C164.64 11.0191 166.155 10.9711 167.181 10.1079L168.843 8.71731C166.204 5.6483 162.54 4.06586 157.899 4.06586C153.941 4.06586 150.619 5.26468 148.323 7.47053C146.026 9.72432 144.805 12.9851 144.805 16.9173Z" fill="#F2F2F2"/>
<path d="M76.2588 26.7479L83.1964 14.8555V29.3374H88.4728V4.35379H85.1995C84.1736 4.35379 83.1964 4.88128 82.7079 5.79238L74.4022 20.6578L66.0966 5.79238C65.6081 4.88128 64.6309 4.35379 63.605 4.35379H60.3315V29.3374H65.6081V14.8555L72.5457 26.7479H76.2588Z" fill="#F2F2F2"/>
<path d="M92.8203 4.40121V29.3848L113.975 29.3369V27.7544C113.975 26.5077 112.949 25.5006 111.679 25.5006H98.0968V18.7872H111.679V14.951H98.0968V8.23748H111.679C112.949 8.23748 113.975 7.23046 113.975 5.98367V4.40121H92.8203Z" fill="#F2F2F2"/>
<path d="M139.384 4.40121H144.366L134.302 16.9649L144.415 29.4328H139.433C138.503 29.4328 137.673 29.0011 137.086 28.3298L131.029 20.8971L125.02 28.2819C124.433 29.0011 123.603 29.3848 122.675 29.3848H117.691L127.804 16.917L117.691 4.44917H122.675C123.603 4.44917 124.433 4.8328 125.02 5.55209L131.029 12.9369L137.039 5.50414C137.624 4.78485 138.454 4.40121 139.384 4.40121Z" fill="#F2F2F2"/>
<defs>
<linearGradient id="paint0_linear_346_1446" x1="13.576" y1="16.7172" x2="39.822" y2="26.5987" gradientUnits="userSpaceOnUse">
<stop stop-color="#264CA2" stop-opacity="0"/>
<stop offset="1" stop-color="#234588"/>
</linearGradient>
</defs>
</svg>
