<svg width="3240" height="381" viewBox="0 0 3240 381" fill="none" xmlns="http://www.w3.org/2000/svg">
<path d="M166 141L0 187L166 218.5M166 141L499.5 218.5M166 141L375 117.793M166 141L92 72M949.5 54L1340 176M949.5 54L781 141M949.5 54L972 295.5M949.5 54L1301.5 8M949.5 54L701 81.5935M949.5 54L567.5 4M1340 176L1263.5 234M1340 176L1301.5 8M1340 176V187M166 218.5H499.5M166 218.5L435 356M166 218.5L92 356M499.5 218.5L658.5 264.5M499.5 218.5L667 114.5M499.5 218.5L435 356M658.5 264.5L972 295.5M658.5 264.5L667 114.5M972 295.5L1340 187M972 295.5L1495 254.252L1340 187M972 295.5L1340 339M972 295.5L1117.5 368M667 114.5L781 141M667 114.5L375 117.793M667 114.5L435 356M781 141L811 321M435 356L811 321M435 356H92M811 321L1060 210L1263.5 234M811 321L1117.5 368M1263.5 234L1340 339M1301.5 8L1621 186.5L1340 339M1340 339L1117.5 368M1340 339L1580 368M375 117.793L92 72M375 117.793L701 81.5935M92 72L0 113M92 72L701 81.5935M92 72L567.5 4M92 72L0 54.5M0 298.5L92 356M92 356L0 372M701 81.5935L567.5 4" stroke="#00D7B0" stroke-opacity="0.15"/>
<path d="M3240 187L3074 141M3240 187L3074 218.5M3240 187L3148 72M3074 141L2849 234M3074 141L2865 117.793M3074 141L3148 72M3074 141V218.5M2290.5 54L1900 110M2290.5 54L2459 141M2290.5 54L2268 295.5M2290.5 54L2539 81.5935M2290.5 54L2672.5 4M2290.5 54L2007 8M1900 110L1976.5 234M1900 110L1745 254.252M1900 110L1693 67.5M3074 218.5L2849 234M3074 218.5L2768 377M3074 218.5L3148 356M2849 234L2581.5 264.5M2849 234L2742.5 186.5M2849 234L2768 377M2849 234L2865 117.793M2581.5 264.5L2268 295.5M2581.5 264.5L2742.5 186.5M2581.5 264.5L2768 377M2581.5 264.5L2459 141M2268 295.5L1745 254.252M2268 295.5L1900 339M2268 295.5L2122.5 368M1745 254.252L2122.5 368M1745 254.252L1766 310.96M1745 254.252L1693 67.5M1745 254.252L1621.5 188L1693 67.5M2742.5 186.5L2459 141M2742.5 186.5L2865 117.793M2742.5 186.5L2768 377M2742.5 186.5L2539 81.5935M2459 141L2429 321M2459 141L2539 81.5935M2768 377L2429 321M2768 377L3148 356M2429 321L2180 210M2429 321L2122.5 368M2180 210L1976.5 234M2180 210L2007 8M1976.5 234L1900 339M1693 67.5L2007 8M1693 67.5L1301.5 8M1900 339L2122.5 368M1900 339L1766 310.96M1900 339L1580 368M2865 117.793L3148 72M2865 117.793L2539 81.5935M3148 72L3240 113M3148 72L2539 81.5935M3148 72L2672.5 4M3148 72L3240 54.5M3240 298.5L3148 356M3148 356L3240 372M2539 81.5935L2672.5 4M2122.5 368H1580M1766 310.96L1580 368M1766 310.96L1495 254.252M1766 310.96L1340 339" stroke="#6E6E6E" stroke-opacity="0.15"/>
<circle cx="93" cy="72" r="4" fill="#21413B"/>
<circle cx="167" cy="141" r="4" fill="#21413B"/>
<circle cx="167" cy="219" r="4" fill="#21413B"/>
<circle cx="93" cy="356" r="4" fill="#21413B"/>
<circle cx="435" cy="356" r="4" fill="#21413B"/>
<circle cx="498" cy="219" r="4" fill="#21413B"/>
<circle cx="374" cy="117" r="4" fill="#21413B"/>
<circle cx="568" cy="4" r="4" fill="#21413B"/>
<circle cx="699" cy="81" r="4" fill="#21413B"/>
<circle cx="667" cy="115" r="4" fill="#21413B"/>
<circle cx="659" cy="264" r="4" fill="#21413B"/>
<circle cx="781" cy="141" r="4" fill="#21413B"/>
<circle cx="950" cy="54" r="4" fill="#21413B"/>
<circle cx="974" cy="296" r="4" fill="#21413B"/>
<circle cx="1118" cy="368" r="4" fill="#21413B"/>
<circle cx="1264" cy="234" r="4" fill="#21413B"/>
<circle cx="1340" cy="339" r="4" fill="#21413B"/>
<circle cx="1340" cy="176" r="4" fill="#21413B"/>
<circle cx="1302" cy="8" r="4" fill="#21413B"/>
<circle cx="1621" cy="187" r="4" fill="#21413B"/>
<circle cx="1693" cy="68" r="4" fill="#313131"/>
<circle cx="1745" cy="254" r="4" fill="#313131"/>
<circle cx="1977" cy="234" r="4" fill="#313131"/>
<circle cx="1900" cy="338" r="4" fill="#313131"/>
<circle cx="2123" cy="368" r="4" fill="#313131"/>
<circle cx="2180" cy="209" r="4" fill="#313131"/>
<circle cx="2267" cy="295" r="4" fill="#313131"/>
<circle cx="2429" cy="320" r="4" fill="#313131"/>
<circle cx="2460" cy="141" r="4" fill="#313131"/>
<circle cx="2671" cy="4" r="4" fill="#313131"/>
<circle cx="2540" cy="81" r="4" fill="#313131"/>
<circle cx="2743" cy="187" r="4" fill="#313131"/>
<circle cx="2582" cy="264" r="4" fill="#313131"/>
<circle cx="2768" cy="377" r="4" fill="#313131"/>
<circle cx="2849" cy="234" r="4" fill="#313131"/>
<circle cx="2865" cy="118" r="4" fill="#313131"/>
<circle cx="3149" cy="72" r="4" fill="#313131"/>
<circle cx="3074" cy="141" r="4" fill="#313131"/>
<circle cx="3074" cy="218" r="4" fill="#313131"/>
<circle cx="3149" cy="357" r="4" fill="#313131"/>
<circle cx="3240" cy="187" r="4" fill="#313131"/>
<circle cx="1900" cy="111" r="4" fill="#313131"/>
<circle cx="2291" cy="54" r="4" fill="#313131"/>
<circle cx="2007" cy="8" r="4" fill="#313131"/>
<circle cx="1764" cy="311" r="4" fill="#313131"/>
<circle cx="1496" cy="254" r="4" fill="#21413B"/>
<circle cx="1580" cy="368" r="4" fill="#21413B"/>
<circle cx="811" cy="321" r="4" fill="#21413B"/>
</svg>
