<svg width="160" height="18" viewBox="0 0 160 18" xmlns="http://www.w3.org/2000/svg">
<g>
<path d="M80.7444 0.0370719C82.146 0.209286 83.4872 0.714889 84.6576 1.51231C85.828 2.30973 86.7943 3.37621 87.4769 4.62407C88.1596 5.87194 88.5392 7.26556 88.5845 8.69039C88.6298 10.1152 88.3396 11.5306 87.7376 12.8201C87.5807 10.9732 87.09 8.95451 85.9017 7.30313C84.768 5.74452 83.1035 4.6642 81.2284 4.26999C80.2012 3.91698 79.0871 3.91767 78.0603 4.27196C77.0335 4.62624 76.152 5.31415 75.5537 6.22805C75.6463 5.72646 75.7976 5.23774 76.0043 4.77214C76.959 2.59839 78.9785 1.05149 80.7444 0.0370719ZM85.0839 7.89291C84.7865 7.4779 84.4414 7.10003 84.0557 6.76727C84.542 7.74036 84.6956 8.84855 84.4928 9.91904C84.2899 10.9895 83.7419 11.9621 82.9341 12.6853C81.6557 14.1431 79.887 15.0702 77.9704 15.287C77.6866 15.3167 77.4013 15.3314 77.1159 15.3308C75.451 15.2883 73.8152 14.8801 72.3224 14.1344C73.1276 15.305 74.1964 16.266 75.441 16.9383C76.6857 17.6106 78.0706 17.9751 79.4819 18.0018C80.8932 18.0284 82.2907 17.7165 83.5594 17.0916C84.828 16.4668 85.9317 15.5468 86.7796 14.4074C86.7996 12.3718 86.4691 9.81053 85.0872 7.89291H85.0839ZM77.8703 14.2962C78.3759 14.244 78.8735 14.1309 79.3524 13.9592C78.2637 13.8916 77.228 13.4612 76.4076 12.7354C75.5872 12.0096 75.0286 11.0295 74.8193 9.9487C74.2266 8.12294 74.3217 6.1406 75.0864 4.3812C75.9109 2.51414 77.393 1.07845 78.9018 0C77.4954 0.120419 76.1372 0.575487 74.9385 1.32793C73.7399 2.08037 72.7348 3.10878 72.0056 4.32894C71.2765 5.54909 70.844 6.92628 70.7435 8.34771C70.6431 9.76913 70.8776 11.1944 71.4278 12.5066C73.187 13.5447 75.537 14.5287 77.8736 14.2794L77.8703 14.2962Z" fill="#00D7B0"/>
<path d="M0 9.00166C0 3.94643 3.58174 0.239258 8.50872 0.239258C12.738 0.239258 16.0093 2.88146 16.8539 6.95935H13.0752C12.4276 5.04173 10.7185 3.82847 8.58216 3.82847C5.76817 3.82847 3.74864 5.98874 3.74864 8.99829C3.74864 12.0078 5.75148 14.1681 8.58216 14.1681C9.59591 14.1957 10.5908 13.8878 11.4152 13.2916C12.2396 12.6953 12.8483 11.8433 13.1486 10.8654H16.8739C16.1028 15.041 12.7881 17.7573 8.50872 17.7573C3.58174 17.7438 0 14.0569 0 9.00166ZM18.336 0.508871H24.5615C28.2901 0.508871 30.4999 2.81406 30.4999 6.0157C30.4999 8.51636 29.1646 10.4812 26.7245 11.1855L31.1742 17.0833V17.4945H27.0149L22.0078 10.653V17.4945H18.336V0.508871ZM24.4413 8.51636C25.91 8.51636 26.798 7.71426 26.798 6.28194C26.798 4.84963 25.8867 4.0509 24.4179 4.0509H21.9912V8.51636H24.4413ZM35.6038 10.3935L29.849 0.913289V0.50213H33.8546L35.754 3.77792L37.423 6.73692L39.092 3.77792L40.9647 0.50213H45.0038V0.963839L39.2356 10.4003V17.4776H35.6038V10.3935ZM45.8683 0.492019H52.3074C55.8191 0.492019 58.1257 2.86798 58.1257 6.46057C58.1257 10.0532 55.8191 12.4055 52.3074 12.4055H49.5202V17.4608H45.8817L45.8683 0.492019ZM51.9369 9.00166C53.4991 9.00166 54.4138 8.03106 54.4138 6.50101C54.4138 4.97096 53.4991 4.00372 51.9369 4.00372H49.5335V9.00166H51.9369ZM62.7022 3.94643H58.2559V0.492019H70.827V3.94643H66.354V17.4641H62.7022V3.94643ZM89.6804 0.492019H92.5177L98.0456 8.62083L103.527 0.492019H106.314V17.4776H102.699V7.47835L98.9936 12.8436H97.0709L93.3456 7.45139V17.4742H89.6804V0.492019ZM107.512 17.0664L113.881 0.492019H116.932L123.305 17.0664V17.4776H119.493L118.411 14.4209H112.403L111.321 17.4776H107.522L107.512 17.0664ZM117.386 11.2664L115.383 5.77979L113.411 11.2664H117.386ZM125.398 3.94643H120.938V0.492019H133.509V3.94643H129.039V17.4641H125.398V3.94643ZM134.31 14.0906H136.954V3.81499H134.337V0.492019H143.206V3.81499H140.609V14.1041H143.253V17.4742H134.297L134.31 14.0906ZM143.126 9.00166C143.126 3.94643 146.708 0.239258 151.635 0.239258C155.867 0.239258 159.135 2.88146 159.98 6.95935H156.201C155.554 5.04173 153.865 3.82847 151.708 3.82847C148.894 3.82847 146.878 5.98874 146.878 8.99829C146.878 12.0078 148.881 14.1681 151.708 14.1681C152.722 14.1962 153.717 13.8886 154.542 13.2923C155.366 12.6959 155.975 11.8436 156.275 10.8654H160C159.232 15.041 155.914 17.7573 151.635 17.7573C146.708 17.7438 143.126 14.0569 143.126 9.00166Z" fill="white"/>
</g>
</svg>
