<svg aria-hidden="true" style="width: 0px; height: 0px; overflow: hidden; position: absolute;" xmlns="http://www.w3.org/2000/svg">
  <symbol id="settings" viewBox="0 0 24 24">
    <path d="M21.7858 14.4869L21.1117 14.2093C20.2052 13.8391 19.6241 12.9832 19.6241 12.0116C19.6241 11.9884 19.6241 11.9884 19.6241 11.9653C19.6241 10.9937 20.2052 10.1378 21.1117 9.76761L21.7858 9.49001C22.4367 9.23554 22.6924 8.449 22.3437 7.84753L20.7631 5.11777C20.4144 4.5163 19.6009 4.35436 19.0663 4.7939L18.4619 5.25657C17.6948 5.83491 16.6953 5.85804 15.8585 5.37224C15.8585 5.37224 15.8353 5.37224 15.8353 5.34911C14.9985 4.8633 14.4871 3.98423 14.6266 3.03575L14.7428 2.29548C14.8358 1.60147 14.3012 1 13.6039 1H10.4194C9.72206 1 9.18744 1.62461 9.28042 2.29548L9.39664 3.03575C9.53611 3.98423 9.02473 4.8633 8.18794 5.34911C8.18794 5.34911 8.1647 5.34911 8.1647 5.37224C7.3279 5.85804 6.30516 5.83491 5.56134 5.25657L4.95699 4.7939C4.39913 4.35436 3.60882 4.5163 3.26016 5.11777L1.6563 7.87066C1.30764 8.47214 1.56333 9.23554 2.21417 9.51314L2.88825 9.79075C3.79478 10.1609 4.37588 11.0168 4.37588 11.9884C4.37588 12.0116 4.37588 12.0116 4.37588 12.0347C4.37588 13.0063 3.79478 13.8854 2.88825 14.2324L2.21417 14.51C1.56333 14.7645 1.30764 15.551 1.6563 16.1525L3.23691 18.8822C3.58558 19.4837 4.39913 19.6456 4.93375 19.2061L5.5381 18.7434C6.30516 18.1651 7.30466 18.142 8.14145 18.6278C8.14145 18.6278 8.1647 18.6278 8.1647 18.6509C9.00149 19.1367 9.51287 20.0158 9.3734 20.9643L9.25718 21.7045C9.1642 22.3985 9.69882 23 10.3961 23H13.5574C14.2547 23 14.7893 22.3754 14.6963 21.7045L14.5801 20.9643C14.4406 20.0158 14.952 19.1367 15.7888 18.6509C15.7888 18.6509 15.8121 18.6509 15.8121 18.6278C16.6489 18.142 17.6716 18.1651 18.4154 18.7434L19.0198 19.2061C19.5776 19.6456 20.3679 19.4837 20.7166 18.8822L22.2972 16.1525C22.7156 15.5047 22.4367 14.7413 21.7858 14.4869ZM12 16.0831C9.72206 16.0831 7.88577 14.2555 7.88577 11.9884C7.88577 9.72135 9.72206 7.8938 12 7.8938C14.2779 7.8938 16.1142 9.72135 16.1142 11.9884C16.1142 14.2555 14.2779 16.0831 12 16.0831Z" />
  </symbol>
  <symbol id="menu" viewBox="0 0 24 24">
    <path d="M21 6.99994H3V4.99994H21V6.99994Z" />
    <path d="M3 18.9999H12L12 16.9999H3V18.9999Z" />
    <path d="M3 12.9999H21L21 10.9999H3V12.9999Z" />
  </symbol>
  <symbol id="close" viewBox="0 0 24 24">
    <path d="M13.8359 12.5L18.0547 16.7188C18.2891 16.9531 18.2891 17.3828 18.0547 17.6172L17.0781 18.5938C16.8438 18.8281 16.4141 18.8281 16.1797 18.5938L12 14.375L7.78125 18.5938C7.54688 18.8281 7.11719 18.8281 6.88281 18.5938L5.90625 17.6172C5.67188 17.3828 5.67188 16.9531 5.90625 16.7188L10.125 12.5L5.90625 8.32031C5.67188 8.08594 5.67188 7.65625 5.90625 7.42188L6.88281 6.44531C7.11719 6.21094 7.54688 6.21094 7.78125 6.44531L12 10.6641L16.1797 6.44531C16.4141 6.21094 16.8438 6.21094 17.0781 6.44531L18.0547 7.42188C18.2891 7.65625 18.2891 8.08594 18.0547 8.32031L13.8359 12.5Z"/>
  </symbol>
  <symbol id="calendar" viewBox="0 0 24 24">
    <path d="M9.6,13H8.4C8.2,13,8,12.8,8,12.6v-1.2C8,11.2,8.2,11,8.4,11h1.3c0.1,0,0.3,0.2,0.3,0.4v1.3C10,12.8,9.8,13,9.6,13z M13,12.6c0,0.2-0.2,0.4-0.4,0.4h-1.2c-0.2,0-0.4-0.2-0.4-0.4v-1.2c0-0.2,0.2-0.4,0.4-0.4h1.3c0.1,0,0.3,0.2,0.3,0.4V12.6z M16,12.6c0,0.2-0.2,0.4-0.4,0.4h-1.3c-0.1,0-0.3-0.2-0.3-0.4v-1.2c0-0.2,0.2-0.4,0.4-0.4h1.3c0.1,0,0.3,0.2,0.3,0.4V12.6z M13,15.6c0,0.2-0.2,0.4-0.4,0.4h-1.2c-0.2,0-0.4-0.2-0.4-0.4v-1.3c0-0.1,0.2-0.3,0.4-0.3h1.3c0.1,0,0.3,0.2,0.3,0.4V15.6z M10,15.6c0,0.2-0.2,0.4-0.4,0.4H8.4C8.2,16,8,15.8,8,15.6v-1.3C8,14.2,8.2,14,8.4,14h1.3c0.1,0,0.3,0.2,0.3,0.4V15.6z M16,15.6c0,0.2-0.2,0.4-0.4,0.4h-1.3c-0.2,0-0.4-0.2-0.4-0.4v-1.3c0-0.2,0.2-0.4,0.4-0.4h1.3c0.2,0,0.4,0.2,0.4,0.4V15.6z M19,7.5v11c0,0.8-0.7,1.5-1.5,1.5h-11C5.7,20,5,19.3,5,18.5v-11C5,6.7,5.7,6,6.5,6H8V4.4C8,4.2,8.2,4,8.4,4h1.3C9.8,4,10,4.2,10,4.4V6h4V4.4C14,4.2,14.2,4,14.4,4h1.3C15.8,4,16,4.2,16,4.4V6h1.5C18.3,6,19,6.7,19,7.5z M17.5,18.3V9h-11v9.3c0,0.1,0.1,0.2,0.2,0.2h10.6C17.4,18.5,17.5,18.4,17.5,18.3z"/>
  </symbol>
  <symbol id="show_pass" viewBox="0 0 24 24">
    <path d="M23.1,19.6c0.1,0.1,0.2,0.3,0.2,0.5c0,0.1-0.1,0.3-0.1,0.4l-0.4,0.4c-0.1,0.1-0.3,0.2-0.4,0.2c-0.1,0-0.3,0-0.4-0.1L1,4.4C0.8,4.4,0.7,4.2,0.7,4c0-0.1,0.1-0.3,0.1-0.4l0.4-0.5C1.3,3.1,1.5,3,1.7,3C1.8,3,1.9,3.1,2,3.1L23.1,19.6z M11.2,8.2c0.2,0,0.6-0.1,0.8-0.1c2.1,0,3.8,1.7,3.9,3.8L11.2,8.2z M12.8,15.9c-0.2,0-0.6,0.1-0.8,0.1c-2.1,0-3.9-1.7-3.9-3.8L12.8,15.9z M12,6.9c-0.7,0-1.4,0.1-2.1,0.3L8.3,5.9c1.2-0.4,2.4-0.7,3.7-0.7c4.3,0,8.1,2.5,10,6.3c0.1,0.1,0.1,0.4,0.1,0.5c0,0.2-0.1,0.4-0.1,0.5c-0.4,0.8-1.2,2-1.9,2.6l-1.3-1c0.5-0.5,1.2-1.5,1.5-2.1C18.7,8.9,15.5,6.9,12,6.9z M12,17.1c0.7,0,1.4-0.1,2-0.2l1.6,1.3c-1.2,0.4-2.4,0.6-3.7,0.6c-4.3,0-8.1-2.5-10-6.2c-0.1-0.1-0.1-0.4-0.1-0.5c0-0.2,0-0.4,0.1-0.5c0.4-0.8,1.2-2,1.9-2.6l1.3,1C4.7,10.4,4,11.4,3.7,12C5.3,15.1,8.5,17.1,12,17.1z"/>
  </symbol>
  <symbol id="hide_pass" viewBox="0 0 24 24">
    <path d="M12,8.1c-0.4,0-0.7,0.1-1.1,0.2c0.2,0.3,0.3,0.6,0.3,1c0,1.1-0.9,2-2,2c-0.3,0-0.7-0.1-1-0.3c-0.6,2.1,0.6,4.3,2.7,4.9c2.1,0.6,4.3-0.6,4.9-2.7s-0.6-4.3-2.7-4.9C12.7,8.1,12.3,8.1,12,8.1z M22,11.5C20.1,7.8,16.3,5.2,12,5.2S3.8,7.8,1.9,11.5c-0.2,0.3-0.2,0.7,0,1c1.9,3.7,5.7,6.3,10.1,6.3s8.1-2.5,10.1-6.3C22.2,12.2,22.2,11.8,22,11.5z M12,17.1c-3.5,0-6.7-1.9-8.4-5.1C5.3,8.9,8.5,6.9,12,6.9s6.7,1.9,8.4,5.1C18.7,15.1,15.5,17.1,12,17.1z"/>
  </symbol>
  <symbol id="question" viewBox="0 0 20 20">
    <path d="M10,3.2c3.7,0,6.8,3.1,6.8,6.8c0,3.7-3.1,6.8-6.8,6.8c-3.7,0-6.8-3-6.8-6.8C3.2,6.3,6.3,3.2,10,3.2z M10,15.5c3,0,5.5-2.4,5.5-5.5c0-3-2.5-5.5-5.5-5.5C7,4.5,4.5,7,4.5,10C4.5,13,7,15.5,10,15.5z M12.9,8.5c0,1.8-2,1.9-2,2.5v0.2c0,0.2-0.1,0.3-0.3,0.3H9.4c-0.2,0-0.3-0.1-0.3-0.3V11c0-1,0.7-1.4,1.3-1.7c0.5-0.3,0.8-0.4,0.8-0.8c0-0.5-0.6-0.8-1.1-0.8C9.4,7.7,9.1,8,8.7,8.5C8.6,8.7,8.4,8.7,8.2,8.6L7.5,8C7.3,7.9,7.3,7.7,7.4,7.6c0.6-1,1.4-1.5,2.7-1.5C11.5,6.1,12.9,7.1,12.9,8.5z M11.1,13.1c0,0.7-0.5,1.1-1.1,1.1c-0.7,0-1.1-0.5-1.1-1.1c0-0.6,0.5-1.1,1.1-1.1C10.6,11.9,11.1,12.4,11.1,13.1z"/>
  </symbol>
  <symbol id="vk" viewBox="0 0 24 24">
    <path d="M23,6.1c-0.3,1.5-3.4,5.8-3.4,5.8c-0.3,0.4-0.4,0.6,0,1.1c0.2,0.2,3.4,3.3,3.8,4.7c0.2,0.7-0.1,1.1-0.9,1.1h-2.5c-0.9,0-1.2-0.7-2.9-2.4c-1.5-1.5-2.1-1.7-2.5-1.7c-0.8,0-0.6,0.3-0.6,3.2c0,0.6-0.2,0.9-1.8,0.9c-2.6,0-5.6-1.6-7.7-4.6c-3.1-4.4-4-7.7-4-8.4c0-0.4,0.2-0.7,0.9-0.7h2.5c0.6,0,0.9,0.3,1.2,1c1.2,3.6,3.3,6.7,4.1,6.7c0.3,0,0.5-0.2,0.5-1V8.2c-0.1-1.7-1-1.8-1-2.4c0-0.3,0.2-0.6,0.6-0.6h3.9c0.6,0,0.7,0.3,0.7,0.9v5c0,0.5,0.3,0.7,0.4,0.7c0.3,0,0.6-0.2,1.2-0.8c1.8-2.1,3.1-5.2,3.1-5.2c0.2-0.4,0.5-0.7,1.1-0.7h2.5C23,5.2,23.1,5.6,23,6.1z"/>
  </symbol>
  <symbol id="tg" viewBox="0 0 24 24">
    <path d="M23.4,4.1L20,20.5c-0.3,1.1-1,1.4-2,0.9l-5.3-3.9l-2.5,2.5c-0.3,0.3-0.5,0.5-1.1,0.5L9.5,15l9.8-8.8c0.5-0.4-0.1-0.6-0.7-0.2L6.5,13.6L1.3,12c-1.1-0.4-1.2-1.1,0.2-1.7L22,2.5C22.9,2.1,23.7,2.7,23.4,4.1z"/>
  </symbol>
  <symbol id="camera" viewBox="0 0 32 32">
    <path d="M27,9.1c0.7,0,1.4,0.6,1.4,1.4v11c0,0.8-0.6,1.3-1.4,1.3c-0.3,0-0.5,0-0.8-0.2l-4.7-3v2.6c0,1.1-1,2-2.2,2H5.8c-1.2,0-2.2-0.9-2.2-2V9.8c0-1.1,1-2.1,2.2-2.1h13.4c1.2,0,2.2,0.9,2.2,2.1v2.6l4.7-3C26.5,9.2,26.7,9.1,27,9.1z M20.1,22.2V9.8c0-0.3-0.4-0.7-0.9-0.7H5.8C5.4,9.1,5,9.5,5,9.8v12.4c0,0.3,0.4,0.6,0.8,0.6h13.4C19.7,22.9,20.1,22.6,20.1,22.2z M27,21.5v-11L21.5,14v4L27,21.5L27,21.5z"/>
  </symbol>
  <symbol id="chart" viewBox="0 0 32 32">
    <path d="M26.7,22.9c0.2,0,0.3,0.2,0.3,0.3v0.7c0,0.2-0.2,0.3-0.3,0.3h-21c-0.4,0-0.7-0.3-0.7-0.7V8.1c0-0.2,0.1-0.3,0.3-0.3H6c0.2,0,0.3,0.2,0.3,0.3v14.8H26.7z M9.2,16.3l3.6-3.6c0.3-0.3,0.7-0.3,1,0l3.6,3.7l3.5-3.5l-1.9-1.9c-0.7-0.6-0.2-1.8,0.7-1.8h5.1c0.4,0,0.7,0.3,0.7,0.7V15c0,0.6-0.5,1-1.1,1c-0.3,0-0.5-0.1-0.7-0.3l-1.9-1.9l-4,4c-0.3,0.3-0.7,0.3-0.9,0l-3.7-3.7l-3.1,3.1c-0.1,0.1-0.3,0.1-0.5,0l-0.5-0.5C9.1,16.7,9.1,16.5,9.2,16.3z M20.6,10.5l3.7,3.7v-3.7H20.6z"/>
  </symbol>
  <symbol id="info" viewBox="0 0 32 32">
    <path d="M16,6.7c-5.2,0-9.3,4.2-9.3,9.3c0,5.2,4.1,9.3,9.3,9.3c5.1,0,9.3-4.1,9.3-9.3C25.3,10.9,21.1,6.7,16,6.7z M16,5.3c5.8,0,10.7,4.8,10.7,10.7c0,5.9-4.8,10.7-10.7,10.7c-5.9,0-10.7-4.8-10.7-10.7C5.3,10.2,10.1,5.3,16,5.3z M14.5,20.1H15V15h-0.5c-0.3,0-0.5-0.2-0.5-0.5v-0.3c0-0.3,0.2-0.5,0.5-0.5h2.1c0.3,0,0.5,0.3,0.5,0.5v6h0.5c0.3,0,0.5,0.3,0.5,0.5V21c0,0.3-0.3,0.5-0.5,0.5h-3.1c-0.3,0-0.5-0.2-0.5-0.5v-0.3C13.9,20.4,14.2,20.1,14.5,20.1z M16,9.8c0.7,0,1.4,0.6,1.4,1.4c0,0.8-0.6,1.4-1.4,1.4c-0.8,0-1.4-0.6-1.4-1.4C14.6,10.5,15.2,9.8,16,9.8z"/>
  </symbol>
  <symbol id="key" viewBox="0 0 32 32">
    <path d="M19.4,6.4c-3.4,0-6.2,2.8-6.2,6.2c0,0.8,0.1,1.6,0.4,2.3l-7.3,7.3v3.4h4.1v-2.8h2.8v-2.8h2.1l1.8-1.8c0.7,0.3,1.5,0.4,2.3,0.4c3.4,0,6.2-2.8,6.2-6.2C25.6,9.2,22.8,6.4,19.4,6.4z M19.4,5c4.2,0,7.6,3.4,7.6,7.6c0,4.2-3.4,7.6-7.6,7.6c-0.7,0-1.3,0-1.9-0.2l-1.3,1.3c-0.2,0.2-0.5,0.3-0.7,0.3h-0.8v1.7c0,0.6-0.5,1-1,1h-1.7V26c0,0.6-0.5,1-1,1H6c-0.6,0-1-0.4-1-1v-3.9c0-0.2,0.1-0.6,0.3-0.7l6.8-6.8c-0.2-0.6-0.2-1.2-0.2-1.9C11.9,8.4,15.2,5,19.4,5z M21.5,9.6c-0.5,0-0.9,0.4-0.9,0.9c0,0.5,0.3,0.9,0.9,0.9c0.5,0,0.9-0.3,0.9-0.9C22.4,10,22,9.6,21.5,9.6z M21.5,8.4c1.1,0,2.1,0.9,2.1,2.1c0,1.2-0.9,2.1-2.1,2.1c-1.2,0-2.1-0.9-2.1-2.1C19.4,9.4,20.3,8.4,21.5,8.4z"/>
  </symbol>
  <symbol id="pawn" viewBox="0 0 32 32">
    <path d="M22.5,24.9c0.2,0,0.3,0.2,0.3,0.3V26c0,0.2-0.2,0.3-0.3,0.3H9.5c-0.2,0-0.3-0.1-0.3-0.3v-0.7c0-0.2,0.1-0.3,0.3-0.3H22.5z M11.5,15.3c-0.2,0-0.3-0.1-0.3-0.3v-0.7c0-0.2,0.1-0.3,0.3-0.3h1.1c-0.8-0.8-1.4-2.3-1.4-3.4c0-2.6,2.1-4.8,4.8-4.8c2.6,0,4.8,2.2,4.8,4.8c0,1.1-0.7,2.7-1.5,3.4h1.1c0.2,0,0.3,0.2,0.3,0.3V15c0,0.2-0.2,0.3-0.3,0.3h-1.7v1.4c0,3.2,0.5,5.5,1.4,6.9h-1.6c-0.8-1.6-1.2-3.9-1.2-6.9v-1.4h-2.8v1.4c0,3-0.4,5.3-1.2,6.9h-1.5c0.9-1.3,1.4-3.7,1.4-6.9v-1.4H11.5z M12.6,10.5c0,1.9,1.5,3.4,3.4,3.4c1.9,0,3.4-1.5,3.4-3.4c0-1.9-1.5-3.4-3.4-3.4C14.1,7.1,12.6,8.6,12.6,10.5z"/>
  </symbol>
  <symbol id="question_light" viewBox="0 0 32 32">
    <path d="M16,19.6c0.6,0,1.2,0.6,1.2,1.2c0,0.7-0.6,1.2-1.2,1.2c-0.7,0-1.2-0.5-1.2-1.2C14.8,20.2,15.3,19.6,16,19.6z M16.3,18.6h-0.7c-0.3,0-0.5-0.2-0.5-0.5c0-3,3.4-2.8,3.4-4.6c0-0.9-0.8-1.8-2.5-1.8c-1.2,0-1.9,0.4-2.5,1.2c-0.2,0.2-0.5,0.3-0.7,0.1l-0.6-0.4c-0.3-0.2-0.3-0.5-0.1-0.7c0.9-1.2,2-1.9,3.9-1.9c2.2,0,4.2,1.3,4.2,3.5c0,2.9-3.4,2.7-3.4,4.6C16.8,18.4,16.6,18.6,16.3,18.6z M16,6.7c-5.2,0-9.3,4.2-9.3,9.3c0,5.2,4.1,9.3,9.3,9.3c5.1,0,9.3-4.1,9.3-9.3C25.3,10.9,21.1,6.7,16,6.7z M16,5.3c5.8,0,10.7,4.8,10.7,10.7c0,5.9-4.8,10.7-10.7,10.7c-5.9,0-10.7-4.8-10.7-10.7C5.3,10.2,10.1,5.3,16,5.3z"/>
  </symbol>
  <symbol id="copy" viewBox="0 0 24 24">
    <path d="M18.5,6.1C18.8,6.3,19,6.8,19,7.1v8.4c0,0.8-0.7,1.5-1.5,1.5H15v1.5c0,0.8-0.7,1.5-1.5,1.5h-7C5.7,20,5,19.3,5,18.5v-10C5,7.7,5.7,7,6.5,7H9V5.5C9,4.7,9.7,4,10.5,4h5.4c0.3,0,0.8,0.2,1.1,0.5L18.5,6.1z M13.3,18.5c0.1,0,0.2-0.1,0.2-0.2V17h-3C9.7,17,9,16.3,9,15.5v-7H6.7c-0.1,0-0.2,0.1-0.2,0.2v9.6c0,0.1,0.1,0.2,0.2,0.2H13.3z M17.3,15.5c0.1,0,0.2-0.1,0.2-0.2V9h-2.8C14.3,9,14,8.7,14,8.3V5.5h-3.3c-0.1,0-0.2,0.1-0.2,0.2v9.6c0,0.1,0.1,0.2,0.2,0.2H17.3z M17.5,7.5V7.2c0-0.1,0-0.1-0.1-0.1l-1.5-1.5c0,0-0.1-0.1-0.1-0.1h-0.3v2H17.5z"/>
  </symbol>
  <symbol id="start" viewBox="0 0 16 16">
    <path d="M14.2,6.7c1,0.6,1,2,0,2.6L3.3,15.7c-1,0.6-2.2-0.1-2.2-1.3V1.6c0-1.3,1.3-1.8,2.2-1.3L14.2,6.7z"/>
  </symbol>
  <symbol id="stop" viewBox="0 0 16 16">
    <path d="M13.5,1C14.3,1,15,1.7,15,2.5v11c0,0.8-0.7,1.5-1.5,1.5h-11C1.7,15,1,14.3,1,13.5v-11C1,1.7,1.7,1,2.5,1H13.5z"/>
  </symbol>
  <symbol id="trash" viewBox="0 0 512 512">
    <path d="M64,464c0,26.5,21.5,48,48,48l0,0h288c26.5,0,48-21.5,48-48l0,0V128H64V464z M336,208c0-8.8,7.2-16,16-16s16,7.2,16,16v224c0,8.8-7.2,16-16,16s-16-7.2-16-16V208z M240,208c0-8.8,7.2-16,16-16c8.8,0,16,7.2,16,16v224c0,8.8-7.2,16-16,16c-8.8,0-16-7.2-16-16V208z M144,208c0-8.8,7.2-16,16-16c8.8,0,16,7.2,16,16v224c0,8.8-7.2,16-16,16c-8.8,0-16-7.2-16-16V208z M464,32H344l-9.4-18.7C330.5,5.1,322.2,0,313.1,0H198.8c-9.1,0-17.4,5.1-21.4,13.3L168,32H48c-8.8,0-16,7.2-16,16v32c0,8.8,7.2,16,16,16h416c8.8,0,16-7.2,16-16V48C480,39.2,472.8,32,464,32z"/>
  </symbol>
  <symbol id="chart_bar" viewBox="0 0 512 512">
    <path d="M396.8 352h22.4c6.4 0 12.8-6.4 12.8-12.8V108.8c0-6.4-6.4-12.8-12.8-12.8h-22.4c-6.4 0-12.8 6.4-12.8 12.8v230.4c0 6.4 6.4 12.8 12.8 12.8zm-192 0h22.4c6.4 0 12.8-6.4 12.8-12.8V140.8c0-6.4-6.4-12.8-12.8-12.8h-22.4c-6.4 0-12.8 6.4-12.8 12.8v198.4c0 6.4 6.4 12.8 12.8 12.8zm96 0h22.4c6.4 0 12.8-6.4 12.8-12.8V204.8c0-6.4-6.4-12.8-12.8-12.8h-22.4c-6.4 0-12.8 6.4-12.8 12.8v134.4c0 6.4 6.4 12.8 12.8 12.8zM496 400H48V80c0-8.84-7.16-16-16-16H16C7.16 64 0 71.16 0 80v336c0 17.67 14.33 32 32 32h464c8.84 0 16-7.16 16-16v-16c0-8.84-7.16-16-16-16zm-387.2-48h22.4c6.4 0 12.8-6.4 12.8-12.8v-70.4c0-6.4-6.4-12.8-12.8-12.8h-22.4c-6.4 0-12.8 6.4-12.8 12.8v70.4c0 6.4 6.4 12.8 12.8 12.8z"/>
  </symbol>
  <symbol id="redo" viewBox="0 0 512 512">
    <path d="M256.455 8c66.269.119 126.437 26.233 170.859 68.685l35.715-35.715C478.149 25.851 504 36.559 504 57.941V192c0 13.255-10.745 24-24 24H345.941c-21.382 0-32.09-25.851-16.971-40.971l41.75-41.75c-30.864-28.899-70.801-44.907-113.23-45.273-92.398-.798-170.283 73.977-169.484 169.442C88.764 348.009 162.184 424 256 424c41.127 0 79.997-14.678 110.629-41.556 4.743-4.161 11.906-3.908 16.368.553l39.662 39.662c4.872 4.872 4.631 12.815-.482 17.433C378.202 479.813 319.926 504 256 504 119.034 504 8.001 392.967 8 256.002 7.999 119.193 119.646 7.755 256.455 8z"/>
  </symbol>
  <symbol id="check_list" viewBox="0 0 512 512">
    <path d="M139.61 35.5a12 12 0 0 0-17 0L58.93 98.81l-22.7-22.12a12 12 0 0 0-17 0L3.53 92.41a12 12 0 0 0 0 17l47.59 47.4a12.78 12.78 0 0 0 17.61 0l15.59-15.62L156.52 69a12.09 12.09 0 0 0 .09-17zm0 159.19a12 12 0 0 0-17 0l-63.68 63.72-22.7-22.1a12 12 0 0 0-17 0L3.53 252a12 12 0 0 0 0 17L51 316.5a12.77 12.77 0 0 0 17.6 0l15.7-15.69 72.2-72.22a12 12 0 0 0 .09-16.9zM64 368c-26.49 0-48.59 21.5-48.59 48S37.53 464 64 464a48 48 0 0 0 0-96zm432 16H208a16 16 0 0 0-16 16v32a16 16 0 0 0 16 16h288a16 16 0 0 0 16-16v-32a16 16 0 0 0-16-16zm0-320H208a16 16 0 0 0-16 16v32a16 16 0 0 0 16 16h288a16 16 0 0 0 16-16V80a16 16 0 0 0-16-16zm0 160H208a16 16 0 0 0-16 16v32a16 16 0 0 0 16 16h288a16 16 0 0 0 16-16v-32a16 16 0 0 0-16-16z"/>
  </symbol>
  <symbol id="doc" viewBox="0 0 512 512">
    <path d="M352,248v28c0,6.6-5.4,12-12,12H172c-6.6,0-12-5.4-12-12v-28c0-6.6,5.4-12,12-12h168C346.6,236,352,241.4,352,248z M340,320H172c-6.6,0-12,5.4-12,12v28c0,6.6,5.4,12,12,12h168c6.6,0,12-5.4,12-12v-28C352,325.4,346.6,320,340,320z M448,131.9V464c0,26.5-21.5,48-48,48H112c-26.5,0-48-21.5-48-48V48c0-26.5,21.5-48,48-48h204.1C328.8,0,341,5.1,350,14.1L433.9,98C442.9,106.9,448,119.2,448,131.9z M320,51.9V128h76.1C396.1,128,320,51.9,320,51.9z M400,464V176H296c-13.3,0-24-10.7-24-24V48H112v416H400z"/>
  </symbol>
  <symbol id="edit" viewBox="0 0 512 512">
    <path d="M290.74 93.24l128.02 128.02-277.99 277.99-114.14 12.6C11.35 513.54-1.56 500.62.14 485.34l12.7-114.22 277.9-277.88zm207.2-19.06l-60.11-60.11c-18.75-18.75-49.16-18.75-67.91 0l-56.55 56.55 128.02 128.02 56.55-56.55c18.75-18.76 18.75-49.16 0-67.91z"/>
  </symbol>
  <symbol id="chevron_down" viewBox="0 0 20 20">
    <path d="M16.8,6.8c0.2,0.1,0.2,0.4,0,0.5l-6.5,6.5c-0.2,0.2-0.4,0.2-0.5,0L3.2,7.3C3,7.2,3,6.9,3.2,6.8l0.6-0.6C4,6,4.2,6,4.3,6.2l5.7,5.7l5.7-5.7C15.8,6,16,6,16.2,6.2L16.8,6.8z"/>
  </symbol>
  <symbol id="percent" viewBox="0 0 16 16">
    <path d="M4.29688 4.34375C3.45312 5.23438 2 5.23438 1.15625 4.34375C0.265625 3.5 0.265625 2.04688 1.15625 1.20312C2 0.3125 3.45312 0.3125 4.29688 1.20312C5.1875 2.04688 5.1875 3.5 4.29688 4.34375ZM11.6562 11.7031C12.5 10.8125 13.9531 10.8125 14.7969 11.7031C15.6875 12.5469 15.6875 14 14.7969 14.8438C13.9531 15.7344 12.5 15.7344 11.6562 14.8438C10.7656 14 10.7656 12.5469 11.6562 11.7031ZM15.2656 1.8125C15.5469 2.09375 15.5469 2.5625 15.2656 2.84375L2.79688 15.3125C2.51562 15.5938 2.04688 15.5938 1.76562 15.3125L0.6875 14.2344C0.40625 13.9531 0.40625 13.4844 0.6875 13.2031L13.1562 0.734375C13.4375 0.453125 13.9062 0.453125 14.1875 0.734375L15.2656 1.8125Z"/>
  </symbol>
  <symbol id="user" viewBox="0 0 48 48">
    <path d="M24 24C18.4531 24 14 19.5469 14 14C14 8.53125 18.4531 4 24 4C29.4688 4 34 8.53125 34 14C34 19.5469 29.4688 24 24 24ZM30.9531 26.5C36.7344 26.5 41.5 31.2656 41.5 37.0469V40.25C41.5 42.3594 39.7812 44 37.75 44H10.25C8.14062 44 6.5 42.3594 6.5 40.25V37.0469C6.5 31.2656 11.1875 26.5 16.9688 26.5H18.2969C20.0156 27.3594 21.9688 27.75 24 27.75C26.0312 27.75 27.9062 27.3594 29.625 26.5H30.9531Z"/>
  </symbol>
  <symbol id="logout" viewBox="0 0 24 24">
    <path d="M3.1,3.8h5.7C9,3.8,9.3,4,9.3,4.3v0.3c0,0.3-0.3,0.5-0.5,0.5H3.1c-0.4,0-0.7,0.3-0.7,0.7v12.4c0,0.4,0.3,0.7,0.7,0.7h5.7c0.3,0,0.5,0.3,0.5,0.5v0.3c0,0.3-0.3,0.5-0.5,0.5H3.1c-1.2,0-2.1-0.9-2.1-2.1V5.8C1,4.7,1.9,3.8,3.1,3.8z M15.1,4.6c0.2-0.2,0.5-0.2,0.7,0l7,7c0.2,0.2,0.2,0.5,0,0.7l-7,7c-0.2,0.2-0.6,0.2-0.7,0l-0.3-0.3c-0.2-0.2-0.2-0.5,0-0.7l5.6-5.7h-12c-0.3,0-0.5-0.2-0.5-0.5v-0.4c0-0.3,0.2-0.5,0.5-0.5h12l-5.7-5.6c-0.2-0.2-0.2-0.5,0-0.7L15.1,4.6z"/>
  </symbol>
  <symbol id="learn" viewBox="0 0 32 32">
    <path d="M28.5,11.6c0.7,0.3,1.2,0.9,1.2,1.6c0,0.8-0.5,1.4-1.2,1.6l-4.9,1.6l0.6,5c0,1.5-3.7,2.8-8.3,2.8c-4.6,0-8.3-1.2-8.3-2.8l0.6-5l-2.3-0.8c-0.1,0.2-0.2,0.3-0.3,0.6c0.3,0.3,0.6,0.6,0.6,1.1c0,0.6-0.3,1-0.8,1.2l0.8,4.8c0.1,0.4-0.2,0.8-0.5,0.8H4.1c-0.3,0-0.6-0.4-0.5-0.8l0.8-4.8c-0.5-0.2-0.8-0.7-0.8-1.2c0-0.5,0.3-1,0.8-1.2c0-0.3,0.2-0.6,0.3-0.9l-1.3-0.4c-0.7-0.3-1.2-0.9-1.2-1.7c0-0.7,0.4-1.4,1.2-1.6L14.8,8c0.8-0.3,1.6-0.3,2.4,0L28.5,11.6z M22.8,21.4l-0.6-4.5l-5.1,1.6c-1.2,0.4-2.2,0-2.4,0l-5.1-1.6l-0.6,4.5c0.5,0.5,2.8,1.5,6.9,1.5C20,22.9,22.4,21.9,22.8,21.4z M28.1,13.6c0.3-0.1,0.3-0.6,0-0.6L16.7,9.2c-0.3-0.1-0.9-0.2-1.5,0L3.8,12.9c-0.3,0.1-0.3,0.6,0,0.6l1.8,0.6c0.4-0.3,0.9-0.6,1.4-0.6l8.8-1.6c0.3-0.1,0.7,0.2,0.8,0.6c0.1,0.3-0.2,0.7-0.6,0.8l-8.4,1.6l7.5,2.4c0.5,0.1,1,0.1,1.5,0L28.1,13.6z"/>
  </symbol>
  <symbol id="chat" viewBox="0 0 32 32">
    <path d="M28.1,24c0.3,0.3,0.3,0.7,0.2,1.1c-0.2,0.3-0.5,0.6-0.9,0.6c-2.3,0-4.2-0.9-5.4-1.7c-0.8,0.2-1.7,0.3-2.5,0.3c-3.7,0-6.9-1.8-8.2-4.2c-0.4-0.1-0.8-0.1-1.2-0.2c-1.2,0.8-3.1,1.7-5.4,1.7c-0.4,0-0.8-0.3-0.9-0.6c-0.1-0.4,0-0.8,0.2-1.1c0,0,0.9-1.1,1.6-2.4c-1.2-1.2-1.9-2.7-1.9-4.3c0-3.8,4-6.9,8.9-6.9c3.7,0,6.9,1.8,8.2,4.3c4.3,0.5,7.6,3.3,7.6,6.7c0,1.6-0.7,3.1-1.9,4.3C27.1,22.9,28.1,23.9,28.1,24z M10.3,18.5c0.7,0.2,1.5,0.3,2.3,0.3c4.2,0,7.6-2.4,7.6-5.5c0-3-3.4-5.5-7.6-5.5C8.4,7.7,5,10.2,5,13.2c0,1.5,0.8,2.6,1.5,3.3l0.7,0.7l-0.5,0.9c-0.4,0.8-0.9,1.5-1.2,2c1.6-0.2,2.9-0.8,3.7-1.4l0.5-0.3L10.3,18.5z M22.8,22.8c0.9,0.6,2.1,1.2,3.7,1.4c-0.3-0.5-0.9-1.2-1.2-2l-0.4-0.9l0.7-0.7c0.7-0.7,1.5-1.8,1.5-3.3c0-2.5-2.4-4.7-5.7-5.3c0.1,0.4,0.2,0.8,0.2,1.2c0,3.7-3.9,6.7-8.6,6.9c1.3,1.7,3.7,2.8,6.6,2.8c0.7,0,1.5-0.1,2.2-0.3l0.6-0.2L22.8,22.8z"/>
  </symbol>
  <symbol id="wrench" viewBox="0 0 32 32">
    <path d="M26.8,9.9c0.6,2.2-0.1,4.5-1.7,6.1c-1.6,1.6-4,2.3-6.2,1.7L10.6,26C10,26.7,9.1,27,8.2,27C7.4,27,6.6,26.7,6,26c-1.3-1.2-1.3-3.4,0-4.6l8.3-8.3c-0.6-2.2,0-4.6,1.7-6.2c1.6-1.6,3.9-2.3,6.1-1.7c0.4,0.1,0.7,0.4,0.9,0.8c0.1,0.4,0,0.9-0.3,1.2l-2.8,2.7l0.3,1.9l1.9,0.3l2.8-2.7C25.1,9.1,25.6,9,26,9.1C26.4,9.2,26.7,9.5,26.8,9.9z M24.1,15.1c1.2-1.2,1.7-2.9,1.4-4.5l-3,3L19,13l-0.6-3.6l3-3c-0.3,0-0.6-0.1-0.9-0.1c-1.3,0-2.6,0.6-3.6,1.5c-1.3,1.4-1.8,3.4-1.2,5.2l0.1,0.4l-8.9,8.9c-0.7,0.8-0.7,1.9,0,2.7c0.7,0.7,2,0.7,2.7,0l8.9-8.9l0.4,0.1C20.7,16.9,22.8,16.5,24.1,15.1z M8.5,22.9c0.3,0,0.7,0.3,0.7,0.7c0,0.4-0.3,0.7-0.7,0.7c-0.4,0-0.7-0.3-0.7-0.7C7.8,23.2,8.1,22.9,8.5,22.9z"/>
  </symbol>
  <symbol id="lock" viewBox="0 0 32 32">
    <path d="M23.6,14.6c1.1,0,2.1,0.9,2.1,2.1v8.3c0,1.2-0.9,2.1-2.1,2.1H8.4c-1.2,0-2.1-0.9-2.1-2.1v-8.3c0-1.1,0.9-2.1,2.1-2.1h0.7v-2.8C9.1,8.1,12.2,5,16,5c3.8,0,6.9,3.2,6.9,7v2.7H23.6z M10.5,11.9v2.8h11v-2.8c0-3-2.5-5.5-5.5-5.5C12.9,6.4,10.5,8.9,10.5,11.9z M23.6,25.6c0.3,0,0.7-0.3,0.7-0.7v-8.3c0-0.3-0.3-0.7-0.7-0.7H8.4c-0.4,0-0.7,0.3-0.7,0.7v8.3c0,0.4,0.3,0.7,0.7,0.7H23.6z"/>
  </symbol>
  <symbol id="wallet" viewBox="0 0 32 32">
    <path d="M21.5,16c0.7,0,1.4,0.6,1.4,1.4c0,0.8-0.6,1.4-1.4,1.4c-0.8,0-1.4-0.6-1.4-1.4C20.1,16.6,20.7,16,21.5,16z M24.9,9.1c1.1,0,2.1,0.9,2.1,2.1v11.7c0,1.5-1.2,2.8-2.8,2.8H9.1c-2.3,0-4.1-1.8-4.1-4.1v-11c0-2.3,1.8-4.1,4.1-4.1h13.1c1.1,0,2.1,0.9,2.1,2.1v0.7H24.9z M25.6,22.9V11.2c0-0.3-0.3-0.7-0.7-0.7H9.8c-0.4,0-0.7-0.3-0.7-0.7c0-0.3,0.3-0.7,0.7-0.7h13.1V8.4c0-0.3-0.3-0.7-0.7-0.7H9.1c-1.5,0-2.8,1.2-2.8,2.8v11c0,1.5,1.2,2.8,2.8,2.8h15.1C25,24.3,25.6,23.6,25.6,22.9z"/>
  </symbol>
  
</svg>
